<svg xmlns="http://www.w3.org/2000/svg" xmlns:xlink="http://www.w3.org/1999/xlink" viewBox="0 0 753.01 525.88"><defs><style>.cls-1{fill:#800217;}.cls-2,.cls-3,.cls-5{fill:none;stroke:#000;stroke-miterlimit:10;}.cls-2{stroke-width:3px;}.cls-3{stroke-width:6px;}.cls-4{clip-path:url(#clip-path);}.cls-5{stroke-width:4px;}</style><clipPath id="clip-path"><path d="M401,391.77l-15.83-2.5a273.17,273.17,0,0,0-55-3l-2.51.12"/></clipPath></defs><g id="Слой_2" data-name="Слой 2"><g id="Слой_1-2" data-name="Слой 1"><ellipse class="cls-1" cx="318.1" cy="414.15" rx="14.35" ry="12.51" transform="translate(-184.51 272.4) rotate(-36.72)"/><ellipse class="cls-1" cx="260.81" cy="299.81" rx="16.93" ry="14.76" transform="translate(-136.11 280.77) rotate(-46.23)"/><path class="cls-1" d="M320.53,384.79c8-1.44,3.67,3.69,13.75,5.91,3.3,3.41,1.17,9.6-2.76,12.52-5.54,4.13-15.44,2.69-19.57-2.85-2.21-3-7.85-8.73-7.18-12.09C308.67,379.52,315.67,385.66,320.53,384.79Z"/><path class="cls-1" d="M301.86,381.69a13.36,13.36,0,0,1-.49-1.91c-1.16-7.22,4.24-14.11,12.06-15.37s15.12,3.57,16.28,10.79a18.55,18.55,0,0,1-.49,7.7C313.75,388,310.91,382.1,301.86,381.69Z"/><ellipse class="cls-1" cx="303.41" cy="403.08" rx="13.62" ry="16.93" transform="translate(-180.8 261.42) rotate(-36.72)"/><path class="cls-1" d="M279.65,307.84c-4.54,7-3.13,13.88,2.15,17.32s13.25.55,17.79-6.44,3.94-15.44-1.35-18.87S284.2,300.85,279.65,307.84Z"/><ellipse class="cls-1" cx="298.96" cy="330.63" rx="15.09" ry="11.41" transform="translate(-132.31 217.92) rotate(-33.23)"/><ellipse class="cls-1" cx="304.91" cy="349.29" rx="15.09" ry="12.39" transform="translate(-38.79 38.1) rotate(-6.72)"/><path class="cls-2" d="M289.92,336.45a44.94,44.94,0,0,0-8.6,3A48.3,48.3,0,0,0,261,358.06"/><path class="cls-3" d="M281.68,322.86s-16.28,29.59-26.46,40.86c-4.2,4.65-26.93,14.67-26.93,14.67"/><path d="M294.17,368.64c-1.13.45-5.19-4.62-6.65-10.84-.59-2.55-.69-5.07-.9-5.06-.4,0,1.7,9.18-3,15.18-2.08,2.62-7.73,5.59-7.15,3.89,1.29-3.76-1.12-11.51,2.82-19.32,1.08-2.15,3.36-.07,2.49-1.22-1.31-1.74-4.42-4.23-7.49-6.35-2.44-1.68-4.66-2.29-4.69-7.52,0-1.64-1.75-7.37-1-7.51,1.11-.21,6.21,4.92,11.31,9,4.12,3.32,6.64,6.07,7.23,4.87s-5.09-3.94-5.27-9c-.05-1.58.42-3.69,1.39-3.91,1.77-.39,2.58,6.15,8.26,11.07,4.57,4,8.71,3.76,8.95,6.23s-3.82,3.05-6,7.35C291.4,361.53,295.42,368.14,294.17,368.64Z"/><path d="M284.57,382.23c7-2.7,8.37-4.74,8.32-6.13s.23-1.38-2.06-4.05a16.17,16.17,0,0,1-4.55-8.55,9.28,9.28,0,0,1,.31-5.74c1.19.29,4.44,3.18,7.79,8,1.33,1.91,5.08,5.17,4.7,3.84-1.76-6,.07-7.31.68-6.67,3.45,3.59,7.3,2.19,9.51,5.05,5.17,6.67,2.54,15.72,2.07,17.26"/><path d="M263.36,350c2.44,1,6.61-6.33,8.84-5.32,1.17.53.79,2.9,1.41,10.48.53,6.4,1,6.73,1.21,6.77,1.18.22,3.4-4.93,4.34-9.63a37.11,37.11,0,0,0,.57-4.66c.41-4.84,0-6.57.29-11.35.19-3.78.36-7.1,1.05-7.18,1.39-.17,3,13.24,4.68,13.15,1.39-.08-.39-7.39.25-16.84.12-1.66-2.85-6.49-8.18-9.25-5.13-2.66-6.57-.23-15.8-2.3-1.78-.4,4.08,6.58,6.13,8.22,2.44,2,4.36,1.63,4.72,2.89.48,1.72-2.88,3-6.18,7.17-.65.82-.07,3.5-.64,9.44C265.93,342.82,261.57,349.19,263.36,350Z"/><path d="M263.34,329.64c-.33.47-1.31.34-2.92.11a13.43,13.43,0,0,1-3.77-1.08c-4.34-2.11-4.34-9.83-8.58-11.5-3.64-1.44-6.13,3.28-12.63,2.26-3.27-.51-5.88-2.21-5.73-2.88s3.94.46,7.08-1.7c2.1-1.44,3.64-4.2,2.89-5.74-.6-1.22-2.17-.71-3.82-1.92-3.37-2.45-2.92-9-2.08-9.19.69-.17,1,4.07,4.57,6.14,2.37,1.39,3.57.27,6.69,1,7.47,1.67,11.64,10.47,12,11.32,1.28,2.8.79,3.45,2.47,6.51C261.57,326.66,264,328.75,263.34,329.64Z"/><path class="cls-2" d="M308.4,377.77c-2.7.6-13.94.56-18.32-.57-6.57-1.68-10.44-6.05-12.06-7.53-4.95-4.57-14.74-1.26-41.6,7.62"/><path d="M395.65,62.08c1.83-5,8.64-8.15,13.76-6.44,1.73.57,2.9,3.48,4.44,2.42,1.13-.78.87-3.56,1.29-5.44a10.11,10.11,0,0,1,2-4.3c.65-.76,1.49-1.8,2.4-1.34,2.58,1.31,2.53-.63,2.93-2.09.29-1.06.47-2.16.78-3.21,1-3.55,2.86-4.14,5.48-1.6,1.66,1.62,3.3,2.91,5.77,2.54a1.94,1.94,0,0,1,2.1,1.18c1.77,3.43,2.82,1.81,4-.47.8-1.55,1.49-4.31,3.53-3.51,2.85,1.12,3.15-.78,3.94-2.22,2-3.74,4-4.58,7.94-2.71,1.71.81,2.25.32,2.5-1.2a38.49,38.49,0,0,1,3-8.67c.63-1.48,1.53-3.41,3.09-3.34,4.16.18,6.69-3.07,9.58-4.82s2.41.1,3,1.18c.84,1.62,1.81,4.87,2.15,4.79,3.67-.8,2.86,2.92,4.38,4.22,2.57-2.11,5.52-3.74,7.36-6.21A43.2,43.2,0,0,1,505.91,8.41c1.87-1,4-2.27,5.78-.77s.55,3.63-.09,5.49c-1.25,3.63,8.66-7.78,8.19-3.82-.61,5.19,20-13.71,18.57-8.34-4.6,17.21,6.18.9,7.06,5.76-2.82,8.53-.81,5.26-2.68,11.18-.32,1-2.93,4.43-1.92,4.69,1.84.5,5,3.15,4.41,4.87a8.89,8.89,0,0,0-.1,4.35c1.68,9.44.68,18.78-1.71,27.93-.85,3.25-.29,4.84,3,4.85,3.51,0,4,1.84,3,4.54-1.49,4.14-2.9,8.34-4.75,12.33-3,6.53-6.38,12.91-9.61,19.35-.9,1.79-1.55,3.42,1.11,4.37a1.77,1.77,0,0,1,1.05,2.68c-3.79,7.93-28.39,38.18-13.81,35.57-2.69,2.91-22.31,14-19.55,14.67,3.55.9,4,2.55,1.65,5.47a19.41,19.41,0,0,1-1.86,1.76c-3.56,3.38-7.19,6.65-11.66,8.88-.81.4-3.07,1-.72,2.73,3,2.19,2.78,3.44-.69,4.93-3,1.31-6.26,2.21-9.23,3.64s-5.5,3.22-8.23,4.85c5.63-1.7,10.9-4.48,16.47-5.08,8.14-.87,15.12-4.79,22.71-7,1.47-.43,2.22-1.8,3.06-3,2.09-3.08,3.8-6.84,6.31-9.12,4.22-3.85,6.51-8.86,9.71-13.21,4.53-6.14,8.49-12.77,12.62-19.24,4-6.17,8.13-12.18,11.16-19,2.48-5.57,3-12,7.1-16.81,1.33-1.58,2.28-4.67,5.39-2.13.62.51,1.05-.18,1.39-.71,1.13-1.74,2.43-3.38,3.4-5.2A58.17,58.17,0,0,1,583.12,76c.92-.91,2.52-2.45,3.27-.8,1.59,3.54,3,1.18,4.35.2,1.19-.84,2.14-2,3.26-3,4.61-3.85,7.76-4,11-.55a5.93,5.93,0,0,0,8.51.07,30,30,0,0,1,13.43-7.83c2-.55,4.7-1.75,5.91,1.61.25.69,1,.72,1.57.49,4.1-1.56,7.6.2,11.22,1.79,1.87.82,2.43,1.78,1.77,3.67-.48,1.37-1.36,3.45-.22,4.16,3,1.87,2.24,4.76,2.5,7.51,2.42-1.28,4.51-2.55,6.73-3.53s4.81-1.82,7.24-2.66c1.29-.45,3-1,3.82.15,2.48,3.4,5.86,2.84,9.3,2.79,3.79,0,5.28,1.91,4.6,5.62-.22,1.19-.85,2.49.43,3.38,1.82,1.29,1.58,2.88.88,4.57-1,2.48.23,2.67,2.24,2.44,3.77-.43,7.56-.67,11.34-1.08s4,0,2.56,3.79c1,0,2,.09,2.92.09,4.49,0,5.59,1.36,4.42,5.56-.61,2.18-1.25,4.36-1.91,6.64.54,0,1,.23,1.22.08,6-4,11.19-.21,16.57,1.76.5.18,1.05.65.8,1-2.73,4.1,1.57,4,3.21,5,3.84,2.37,4.12,4.75.66,7.94-1.36,1.25-3.45,2-3.75,4.39,2.13.56,3.58-.81,5.07-1.66,3.68-2.1,13.5,1.07,14.25,5.15.6,3.25,2.82,4.54,5.06,5.52a16.46,16.46,0,0,1,4.6,3.48c2.91,2.67-.88,3.48-1.64,4.86-1.79,3.23-3,7-6.88,8.73-1.11.49-1.29,1.62.08,2.16,2.77,1.12,2.5,2.68.74,4.43-2.92,2.92-5.18,6.46-8.86,8.69-2,1.22-3.64,3-.87,5.57,2.28,2.1,1.66,3.65-1.57,4.42-5.19,1.25-8,4.91-10.74,9.38a26.7,26.7,0,0,0,3.75.91c3.4.28,2.29,3.47,3.14,5.22.58,1.2-1.67,2-3,2.58a52.11,52.11,0,0,0-11,6.35c-.76.61-1.81,1.34-1.18,2.4,2.43,4.14-.91,6-3.46,6.91-3.72,1.28-6.5,3.89-9.94,5.46-2.31,1.06-1.67,2,.07,2.9a11.19,11.19,0,0,0,2.06.73c.71.2,1.53.31,1.46,1.28-.05.74-.77.84-1.32,1.1a38.45,38.45,0,0,0-9.72,7.07c-1.2,1.11-1.91,2-.26,3.54,2,1.8.88,2.65-1.28,3.35a61.5,61.5,0,0,1-25.82,2.93c1.25,6.55.42,7.2-6.38,8.45-2.48.46-7,0-6.28,5.21.16,1.06-.85,1.34-1.72,1.55-2.29.55-4.64.92-6.88,0-6.7-2.66-14.08-1.43-20.84-3.73A1.34,1.34,0,0,0,622,257c-.1,1.5,3.53,2.76.87,4.11-3.88,2-8.14,2.77-12.54.87-5.62-2.42-11.62-4.17-15.4-9.56a7,7,0,0,0-1.38-1.2c-.49-.41-1.12-.87-1.61-.28-3.31,4-4-.19-5-1.79-4-6.45-7.12-13.44-12.09-19.28-1.65-1.95-3.15-4.43-5.75-4.9-4-.73-6.27-3.41-8.63-6.3-3.56-4.34-5.39-9.71-11.41-12.54-6.43-3-10.38-9.8-15-15.33-.61-.73-.85-2-1.92-2.06-5.39-.16-10.25-3.2-15.87-2.46a163.65,163.65,0,0,0-25.81,5.29c-8.44,2.54-16.69,5.7-25.17,8.16-5.64,1.64-11.3,3.3-16.47,6.24-.81.47-2.15.65-1.67,2,.4,1.09,1.57,1.08,2.55.73a7.33,7.33,0,0,1,3.26-.11c7.85.69,15.69,1.46,23.55,2,4.4.3,9.35.57,12.86,2.22,4.38,2.06,8.49,1.51,12.69,2.08a128.82,128.82,0,0,1,18.34,3.65c4.82,1.37,5.61,4.12,3.15,7.8,7.17,1.53,14.32,3.09,21.5,4.56,4.35.89,6.44,4.26,7.4,7.85.62,2.31,1.48,2.9,3.43,3.32,7.36,1.58,13.88,5.31,20.72,8.22a5.9,5.9,0,0,1,3.43,4.14c.59,2.78,2.52,4.08,4.75,5.19,4.83,2.39,9.69,4.71,14.52,7.09,6,3,7.8,5.82,7.13,12.5-.19,1.88.54,2.39,1.9,2.91,2.51,1,5.23,1.42,7.41,3.15,2.58,2.05,3.12,5.86,1.09,7.66-3,2.7-2.94,3.46.54,5.78a16.78,16.78,0,0,1,3.48,2.68c1.31,1.51,3.42,3.15,2.1,5.4-1.63,2.79-.28,4.42,1.62,5.93,2.34,1.85,4,4.31,5.89,6.52,1.5,1.74,1.76,3.42-1.41,3.53-.53,0-1.31-.27-1.42.83,3.2,2.82,7,4.8,10.68,7,4.6,2.73,4.91,5.35,1,8.83-1.32,1.18-1.18,2-.11,3,2.46,2.29,4,5.28,6,7.88,1.63,2.11,1.07,3.58-.33,5.16-1.57,1.77-3.06.66-4.55-.29-4.79-3-10-2.09-13.6,2.49-.71.91-1.58.9-2.59,1a190.1,190.1,0,0,1-19.39.35c-2.88,0-3,1.6-1.86,3.21,2.09,2.92.35,3.29-1.93,3.58s-5.08,0-7.18,1c-4.4,2-4.91,2.24-7.61-1.93a9.24,9.24,0,0,0-4.26-3.3c-.94-.44-2.13-1.23-2.93.1a2.34,2.34,0,0,0,.7,3,11.27,11.27,0,0,1,3.4,5.15c.75,2.39-.25,3.31-2.51,3-2.06-.3-4.06-1-6.12-1.23-2.46-.23-5.24-1-6.26,2.66-.48,1.73-1.88,1.2-3,.45-2.53-1.73-5-3.51-7.52-5.28-1.25-.88-2.59-1.85-3.75-.05-1.4,2.17-2.85,1.41-4.29.25-3.07-2.44-6.05-5-9.13-7.43-1.28-1-2.1-3.44-3.94-2.73-1.49.58-.77,2.87-1.08,4.39-.62,3,.27,6-5.48,5.34-4.84-.58-9.33-1.06-13.53-3.47-1.43-.81-2.52-1.3-3.7.46-1.42,2.12-3.37,2-5,.26-4.84-5.16-8.68-11-9.93-18-.65-3.58-1.21-4.22-4-1.76a3,3,0,0,1-2.14.61c-4.5-.65-7.76,1.88-10.75,4.5-2.39,2.09-3.9,1.21-5.62-.49-1.12-1.12-1.82-3.43-3.25-3.31-4.23.35-4.54-3.08-5.8-5.45-.9-1.69-1.08-3.75-1.69-5.61-1.28-3.86-1.76-4-5.25-2.13-2.33,1.28-3.92,2.24-5.57-1.45-.88-2-2.41-6.68-7-4-.95.54-1.48-.51-1.9-1.26a22.57,22.57,0,0,1-3.1-10.12,28.75,28.75,0,0,0-1.32-7.56c-.44-1.36-1.05-2.49-2.88-2.09-2.75.61-4.34-.77-5.46-3.18-3.44-7.39-4.42-15.49-6.74-23.2-.44-1.44-.34-2.84-2.35-3.11-2.33-.31-3.08-2.09-3.39-4.21a20.85,20.85,0,0,1,1.44-11.88c.87-1.93.79-3.37-1.61-3.79-2.65-.45-3.09-1.89-2.23-4.22a24.43,24.43,0,0,0,.37-2.9c1.2-5.46,1.08-11.14,3.54-16.43,3.26-7,5.89-14.26,9.92-20.88.53-.88,1.17-2.14-.17-2.39-3.28-.63-6.69-1.84-9.91.19-.95.61-1.82,1.33-3,1.23-4.21-.36-7.85,1.68-11.76,2.58-6.34,1.46-12.26,5.32-19.19,3.6-.9-.22-1.39.28-1.8.93-1.33,2.07-3.54,2.53-5.69,3-10.68,2.31-21.19,5.14-31.17,9.69-1,.47-2.1,1.25-3.81.44l8.3-4.14c-3.38-.4-6.57-.14-8.2,2.92-1.85,3.45-4.12,3.74-7.48,2.27-2.69-1.17-3.94-.14-4,2.64a1.42,1.42,0,0,1-.92,1.43c-2.28.84-4.78,2.53-6.88,2.15-3.46-.62-4.43,1.37-6.29,3.28s-4.27,4.73-7.16,3.75c-2.46-.83-4.09-2.26-5.41,1.08-.13.31-.83.54-1.27.56-5,.22-7.34,6.17-12.62,5.72-.15,0-.45.32-.48.52-.35,3-5.76,2.83-4.43,7,.06.19-.65.68-1.05,1a59.09,59.09,0,0,1-16.26,7.91c-1.72.49-3.93-1.19-4.84.73-1.69,3.59-4.91,5.07-8,6.84a12.71,12.71,0,0,0-4.44,3.61,27.92,27.92,0,0,0-5.31,2.7,21.48,21.48,0,0,0-1.78,1.31c-6.4,3.17-13.58,4.57-19.5,8.76-1.92,1.36-3.52,3.06-6.22,1.92-.43-.18-1.23.79-1.9.86-2.92.32-4.07,3.31-6.56,4.4,1.8-2.25.32-5.84,3.49-7.38,10.33-5,18.36-13.48,28.72-18.7,9.21-4.65,17.38-11.38,27-15.6,2.53-1.12,3.83-3.79,6.48-4.74,11-3.95,21-10,31.47-14.95,11.27-5.31,22.09-11.62,34-15.52,10.65-3.49,21.3-6.95,32.24-9.48,2.72-.63,5.28-1.94,8-2.6,6.65-1.6,13.23-3.41,20.09-4.12,7.45-.77,14.44-3.64,21.62-5.62,3.28-.91,6.59-1.73,9.89-2.59a24.93,24.93,0,0,1-16.47-9.09c-4-4.88-9.14-8.67-14.15-12.05a38.6,38.6,0,0,1-16.71-24c-.22-.93-.78-2,0-2.8s1.81-.1,2.66.3c.66.3,1.34.83,2,.05a1.92,1.92,0,0,0,.18-2.1c-.5-1-1.22-1.83-1.74-2.8-3-5.47-7.4-10.15-8.89-16.39a19.63,19.63,0,0,0-3.5-7.59c-2.36-3.07-1.07-6.58,2.6-7.72,4.8-1.5,5.76-3.59,4.59-8.55-2.09-8.87-6.27-17.64-1.17-26.94,1.07-1.95,1.5-3.29,3.87-1.85s3.67.24,4-2.17a17.53,17.53,0,0,0-.93-8c-1.22-3.79-.47-5.14,3.4-6.25C395.46,63.3,395.45,62.63,395.65,62.08Z"/><path d="M96.55,385.23c1.11.3.55,1.45.6,2.24a25.52,25.52,0,0,1-.53,8.75c-.22.79-1.13,2.08.52,2.34,1.28.21,1.51-1,1.67-2,.22-1.31-.13-3,1.1-3.76,3-1.82,4.36-5,6.72-7.37,2.64-2.63,4.92-5.82,7.8-8.21,2.44-2,4.79-5.92,9.56-2.11-2.45-3.71-2.45-3.72.52-6q2.05-1.56,4.15-3.05c.44-.3.86-1,1.54-.36,3.43,3.09,4.88-1.26,4.78-2.26-.37-3.57,2.11-4.35,4.22-5.62a45.37,45.37,0,0,0,4.88-3.85c4.16-3.4,8.58-6.5,12.89-9.72l.38.43-6.93,7.1c1.46.55,2.26.09,2.67-.62,2.77-4.82,8.91-5.42,12.07-10.54,2.08-3.38,7.13-5.36,9.23-9.69a5.8,5.8,0,0,1,2.09-2,74.18,74.18,0,0,0,13.18-10.27c5.26-5.4,11.74-9.19,17.68-13.68a2.66,2.66,0,0,1,2.6-.56c-2.86,2.13-5.62,4-8.1,6.13-1.42,1.23-4.93,2.2-3.49,4.07,1.08,1.4,3.45-1.76,5.35-2.7a1.56,1.56,0,0,0,.64-.87c1.24-3.53,5.21-2.71,7.17-5.52.62,2-.38,2.59-1,3.21-2.78,2.58-5.65,5.06-8.41,7.66-7.94,7.5-15.61,15.29-24.66,21.54-4.23,2.91-8.39,5.93-12.33,9.22-13,10.85-25.64,22.16-38.84,32.81A237,237,0,0,0,98.73,406.3a11.57,11.57,0,0,1,2.46-.79c3.83,0,5.42-4.3,8.85-4.69,10.66-1.22,20.1-6.62,30.6-8.6,7.83-1.48,15.57-3.82,23.31-5.86,4.86-1.28,9.86-1.48,14.69-3a183.3,183.3,0,0,1,21.87-5.54c6.7-1.25,12.76-3.9,18.68-7a22.23,22.23,0,0,1,6-2.5,31,31,0,0,0,5.48,3.7,25,25,0,0,0,5,2,4.26,4.26,0,0,0,2.75,1c1.51,0,3,0,4.52-.07.34,0,.69,0,1,0a3.66,3.66,0,0,0,3,1.29,105.65,105.65,0,0,1,15.51.13c4.65.53,9.26,1.43,13.86,2.29,8,1.51,53.93,4.78,55.14,4.89,5.37.48,10.74.92,16.11,1.36,2.34.19,4.89.53,6.85-.68a6,6,0,0,1,5.2-.51c11.64,3,23.49,2.9,35.38,2.59,2.91-.07,3.6-1.28,3.47-3.8a109.07,109.07,0,0,0-1.6-16.81c-.68-3.32,2.43-7.77,5.8-8.78,2.45-.74,6.16,1.31,7.77,4.2,4.25,7.62,6.55,16,9.7,24.15,2.41-5.08,4-10.12,8.21-14.39,8.39-8.57,18.64-9.19,28.89-7.45,14.73,2.49,26.34,11.31,36.73,21.7,1,1,2.45,2.16,1.95,3.34-1.85,4.35.14,7.54,2.58,10.74a4.37,4.37,0,0,1,.39,1.41c.94,3.43,1.64,6.94,4,9.77a2.48,2.48,0,0,1,.57,2.75c-2.36,3.63-1,7.64-1.42,11.46-.22,1.85-.28,4-2.32,4.63-2.24.72-2.6-1.55-3.62-2.84s-2.1-3.7-4.13-.45c-1.06,1.69-3.18,1.53-4.86.06-.77-.69-1.09-1.95-3-2.08,1.47,3.06,2.79,5.86,4.17,8.64,2.6,5.28,1.36,11.26,3.05,16.73.32,1,.19,2.83-1.1,3.24-2.26.72-1.91,2.21-2.1,4-.36,3.38.7,6.24,2.19,9.1.55,1.05,1.59,2.71.42,3.35-3.3,1.8-1.68,4.32-1.43,6.64.44,4.23,1.74,8.43-.5,12.59-1.28,2.38-2.68,2.85-4.42.68-2-2.49-3.78-5.13-5.71-7.68-1.24-1.64-1.84-4.41-5-2.79-.65.33-1.59-.51-2.08-1.26-1.44-2.19-3.65-3.83-4.21-6.68-1.24,1,.09,3.09-1.76,3.14-1.23,0-2.15-1.07-2.93-2-.38-.47-.59-1.08-.94-1.58-2.94-4.28-3.65-9.5-6.06-14.75a8.11,8.11,0,0,1-.5,1.91c-1.2,1.84.17,5.58-1.82,5.75-2.82.24-2.89-3.74-4.56-5.59a2.43,2.43,0,0,1-.36-1c-2.7-10.42-5.73-20.75-7.12-31.47-.58-4.51-3.42-8.07-6-11.82a12.75,12.75,0,0,1,.17,8.29,26.64,26.64,0,0,0-.89,6.89c-.4,7.71-.86,15.45-4.54,22.51-.33.63-.19,2-1.51,1.53a1.81,1.81,0,0,1-1.2-2.08c.71-2.3-.64-4-1.41-5.9-1.15-2.84-2.29-5.69-3.33-8.57-1.94-5.36-1.91-5.38-6.05-1.3-.36.36-.69.68-1.31.35-.76-1.5-.12-3,.06-4.57.2-1.78,0-3.54-2.29-3.94-4.07-.73-5.68-2.38-5.47-6.42a36.54,36.54,0,0,0-1-11.66c-.59-2.17-1.36-4.43-3.89-4.9-2.26-.43-3.19-1.36-2.84-3.72a2.71,2.71,0,0,0-2.12-3.36,145.29,145.29,0,0,0-20.07-4.05c-7.68-.82-15.39-1-23.09-1.38a112.47,112.47,0,0,0-15,0c-6.32.52-38.52-3.32-48-2.77-1.49.08,1.32,1.77-3.92,5.25-4,2.66-8.23,4.78-11.32,8.59-1,1.22-1.7.26-1.9-.87a3.37,3.37,0,0,1,1-2.69c3.3-4,6.62-8,10.3-12.5-5.7-1.26-11-1-16.18-2.08a71.43,71.43,0,0,0-13.2-1.52c-7-.14-13.83-1.78-20.82-1.21-5.36.44-10.7-.75-16.12-.17-9.89,1.06-19.21,4.07-28.69,6.82a169,169,0,0,1-18.95,4.64c-7.38,1.24-14.25,4.65-21.5,6.27-15.66,3.5-30.73,9-46.15,13.21-1.07.29-2.83-.35-3.13,1.26-.35,1.77,1.44,2.38,2.53,3.28a5.6,5.6,0,0,0,2,1c3,.87,5.23,3.13,7.89,4.63,1.54.87,2.33,2.6,0,3.58-5.21,2.14-16.81-.8-20.8-5.12-2.81-3-3.3-3-5.45.43a8.34,8.34,0,0,1-1.76,1.85A83.09,83.09,0,0,0,69.7,440.36c-5.74,8.53-12.16,16.53-18.08,24.9-3.37,4.77-7.48,9.16-10.43,14-4,6.54-8.84,12.51-12.37,19.32-2.43,4.71-6.6,8.18-9.23,12.81-2.41,4.23-4.28,8.87-7.88,12.34-1.82,1.76-3.73,3.69-5.71.05a2.46,2.46,0,0,0-1.81-1.11c-4.07.16-3.23-2.1-2.3-4.45a18.91,18.91,0,0,1,3.53-6.38A77.26,77.26,0,0,0,17,496c5.52-10.24,13.82-18.3,19.81-28.1,4.17-6.81,7.87-14,13.48-19.91a41.22,41.22,0,0,0,4.41-5.79c4.15-6.44,7.93-13.15,12.79-19.11A13.87,13.87,0,0,0,70.76,417c.95-5.15,4.72-7.34,9.06-8.58a8,8,0,0,0,4.78-3.64c1.92-3,3.51-6.18,5.6-9s3-5.84,4.19-8.92C94.73,385.94,95.43,384.94,96.55,385.23Z"/><path d="M276.4,378.69c2,.37,3.94.73,5.92,1.06-4.75.05-9.19-1.16-13.56-2.45C271.31,377.73,273.86,378.21,276.4,378.69Z"/><path d="M0,520.57,7.62,525C66,425.5,111.58,390.28,148.24,362c10.31-8,20-15.48,28.93-23.63C215.94,302.74,265,270.91,318.9,246.3c33.11-15.11,101.41-33.28,123-38L440,199.71c-22.6,4.9-90.62,22.95-124.8,38.55-54.79,25-104.6,57.35-144,93.59-8.59,7.89-18.19,15.3-28.35,23.14C105.58,383.76,59.21,419.55,0,520.57Z"/><path d="M401,391.77l-15.83-2.5a273.17,273.17,0,0,0-55-3l-2.51.12"/><g class="cls-4"><path d="M401,391.77,356.5,425Z"/><rect x="350.92" y="408.19" width="55.57" height="0.21" transform="translate(-168.98 307.48) rotate(-36.72)"/><rect x="350.79" y="408.02" width="55.57" height="0.21" transform="translate(-168.91 307.37) rotate(-36.72)"/><rect x="350.66" y="407.86" width="55.57" height="0.21" transform="translate(-168.83 307.26) rotate(-36.72)"/><rect x="350.54" y="407.69" width="55.57" height="0.21" transform="translate(-168.75 307.15) rotate(-36.72)"/><rect x="350.41" y="407.52" width="55.57" height="0.21" transform="translate(-168.68 307.04) rotate(-36.72)"/><rect x="350.28" y="407.35" width="55.57" height="0.21" transform="translate(-168.6 306.93) rotate(-36.72)"/><rect x="350.16" y="407.18" width="55.57" height="0.21" transform="translate(-168.52 306.82) rotate(-36.72)"/><rect x="350.03" y="407.01" width="55.57" height="0.21" transform="translate(-168.45 306.71) rotate(-36.72)"/><rect x="349.91" y="406.84" width="55.57" height="0.21" transform="translate(-168.37 306.6) rotate(-36.72)"/><rect x="349.78" y="406.67" width="55.57" height="0.21" transform="translate(-168.3 306.49) rotate(-36.72)"/><rect x="349.65" y="406.5" width="55.57" height="0.21" transform="translate(-168.22 306.38) rotate(-36.72)"/><rect x="349.53" y="406.33" width="55.57" height="0.21" transform="translate(-168.14 306.27) rotate(-36.72)"/><rect x="349.4" y="406.16" width="55.57" height="0.21" transform="translate(-168.07 306.17) rotate(-36.72)"/><rect x="349.27" y="405.99" width="55.57" height="0.21" transform="translate(-167.99 306.06) rotate(-36.72)"/><rect x="349.15" y="405.82" width="55.57" height="0.21" transform="translate(-167.91 305.95) rotate(-36.72)"/><rect x="349.02" y="405.65" width="55.57" height="0.21" transform="matrix(0.8, -0.6, 0.6, 0.8, -167.84, 305.84)"/><rect x="348.89" y="405.48" width="55.57" height="0.21" transform="translate(-167.76 305.73) rotate(-36.72)"/><rect x="348.77" y="405.31" width="55.57" height="0.21" transform="translate(-167.69 305.62) rotate(-36.72)"/><rect x="348.64" y="405.14" width="55.57" height="0.21" transform="translate(-167.61 305.51) rotate(-36.72)"/><rect x="348.51" y="404.97" width="55.57" height="0.21" transform="translate(-167.53 305.4) rotate(-36.72)"/><rect x="348.39" y="404.8" width="55.57" height="0.21" transform="translate(-167.46 305.29) rotate(-36.72)"/><rect x="348.26" y="404.63" width="55.57" height="0.21" transform="translate(-167.38 305.18) rotate(-36.72)"/><rect x="348.14" y="404.47" width="55.57" height="0.21" transform="translate(-167.3 305.07) rotate(-36.72)"/><rect x="348.01" y="404.3" width="55.57" height="0.21" transform="translate(-167.23 304.96) rotate(-36.72)"/><rect x="347.88" y="404.13" width="55.57" height="0.21" transform="translate(-167.15 304.85) rotate(-36.72)"/><rect x="347.76" y="403.96" width="55.57" height="0.21" transform="translate(-167.08 304.75) rotate(-36.72)"/><rect x="347.63" y="403.79" width="55.57" height="0.21" transform="translate(-167 304.64) rotate(-36.72)"/><rect x="347.5" y="403.62" width="55.57" height="0.21" transform="translate(-166.92 304.53) rotate(-36.72)"/><rect x="347.38" y="403.45" width="55.57" height="0.21" transform="translate(-166.85 304.42) rotate(-36.72)"/><rect x="347.25" y="403.28" width="55.57" height="0.21" transform="translate(-166.77 304.31) rotate(-36.72)"/><rect x="347.12" y="403.11" width="55.57" height="0.21" transform="translate(-166.69 304.2) rotate(-36.72)"/><rect x="347" y="402.94" width="55.57" height="0.21" transform="translate(-166.62 304.09) rotate(-36.72)"/><rect x="346.87" y="402.77" width="55.57" height="0.21" transform="translate(-166.54 303.98) rotate(-36.72)"/><rect x="346.74" y="402.6" width="55.57" height="0.21" transform="translate(-166.47 303.87) rotate(-36.72)"/><rect x="346.62" y="402.43" width="55.57" height="0.21" transform="translate(-166.39 303.76) rotate(-36.72)"/><rect x="346.49" y="402.26" width="55.57" height="0.21" transform="translate(-166.31 303.65) rotate(-36.72)"/><rect x="346.37" y="402.09" width="55.57" height="0.21" transform="translate(-166.24 303.54) rotate(-36.72)"/><rect x="346.24" y="401.92" width="55.57" height="0.21" transform="translate(-166.16 303.43) rotate(-36.72)"/><rect x="346.11" y="401.75" width="55.57" height="0.21" transform="translate(-166.08 303.32) rotate(-36.72)"/><rect x="345.99" y="401.58" width="55.57" height="0.21" transform="translate(-166.01 303.22) rotate(-36.72)"/><rect x="345.86" y="401.41" width="55.57" height="0.21" transform="translate(-165.93 303.11) rotate(-36.72)"/><rect x="345.73" y="401.24" width="55.57" height="0.21" transform="translate(-165.86 303) rotate(-36.72)"/><rect x="345.61" y="401.08" width="55.57" height="0.21" transform="matrix(0.8, -0.6, 0.6, 0.8, -165.78, 302.89)"/><rect x="345.48" y="400.91" width="55.57" height="0.21" transform="translate(-165.7 302.78) rotate(-36.72)"/><rect x="345.35" y="400.74" width="55.57" height="0.21" transform="matrix(0.8, -0.6, 0.6, 0.8, -165.63, 302.67)"/><rect x="345.23" y="400.57" width="55.57" height="0.21" transform="translate(-165.55 302.56) rotate(-36.72)"/><rect x="345.1" y="400.4" width="55.57" height="0.21" transform="translate(-165.47 302.45) rotate(-36.72)"/><rect x="344.97" y="400.23" width="55.57" height="0.21" transform="translate(-165.4 302.34) rotate(-36.72)"/><rect x="344.85" y="400.06" width="55.57" height="0.21" transform="translate(-165.32 302.23) rotate(-36.72)"/><rect x="344.72" y="399.89" width="55.57" height="0.21" transform="translate(-165.25 302.12) rotate(-36.72)"/><rect x="344.6" y="399.72" width="55.57" height="0.21" transform="translate(-165.17 302.01) rotate(-36.72)"/><rect x="344.47" y="399.55" width="55.57" height="0.21" transform="translate(-165.09 301.9) rotate(-36.72)"/><rect x="344.34" y="399.38" width="55.57" height="0.21" transform="translate(-165.02 301.8) rotate(-36.72)"/><rect x="344.22" y="399.21" width="55.57" height="0.21" transform="translate(-164.94 301.69) rotate(-36.72)"/><rect x="344.09" y="399.04" width="55.57" height="0.21" transform="translate(-164.86 301.58) rotate(-36.72)"/><rect x="343.96" y="398.87" width="55.57" height="0.21" transform="translate(-164.79 301.47) rotate(-36.72)"/><rect x="343.84" y="398.7" width="55.57" height="0.21" transform="translate(-164.71 301.36) rotate(-36.72)"/><rect x="343.71" y="398.53" width="55.57" height="0.21" transform="translate(-164.64 301.25) rotate(-36.72)"/><rect x="343.58" y="398.36" width="55.57" height="0.21" transform="translate(-164.56 301.14) rotate(-36.72)"/><rect x="343.46" y="398.19" width="55.57" height="0.21" transform="translate(-164.48 301.03) rotate(-36.72)"/><rect x="343.33" y="398.02" width="55.57" height="0.21" transform="translate(-164.41 300.92) rotate(-36.72)"/><rect x="343.2" y="397.85" width="55.57" height="0.21" transform="matrix(0.8, -0.6, 0.6, 0.8, -164.33, 300.81)"/><rect x="343.08" y="397.69" width="55.57" height="0.21" transform="translate(-164.25 300.7) rotate(-36.72)"/><rect x="342.95" y="397.52" width="55.57" height="0.21" transform="translate(-164.18 300.59) rotate(-36.72)"/><rect x="342.82" y="397.35" width="55.57" height="0.21" transform="translate(-164.1 300.48) rotate(-36.72)"/><rect x="342.7" y="397.18" width="55.57" height="0.21" transform="translate(-164.03 300.38) rotate(-36.72)"/><rect x="342.57" y="397.01" width="55.57" height="0.21" transform="translate(-163.95 300.27) rotate(-36.72)"/><rect x="342.45" y="396.84" width="55.57" height="0.21" transform="translate(-163.87 300.16) rotate(-36.72)"/><rect x="342.32" y="396.67" width="55.57" height="0.21" transform="translate(-163.8 300.05) rotate(-36.72)"/><rect x="342.19" y="396.5" width="55.57" height="0.21" transform="translate(-163.72 299.94) rotate(-36.72)"/><rect x="342.07" y="396.33" width="55.57" height="0.21" transform="translate(-163.64 299.83) rotate(-36.72)"/><rect x="341.94" y="396.16" width="55.57" height="0.21" transform="translate(-163.57 299.72) rotate(-36.72)"/><rect x="341.81" y="395.99" width="55.57" height="0.21" transform="translate(-163.49 299.61) rotate(-36.72)"/><rect x="341.69" y="395.82" width="55.57" height="0.21" transform="translate(-163.42 299.5) rotate(-36.72)"/><rect x="341.56" y="395.65" width="55.57" height="0.21" transform="translate(-163.34 299.39) rotate(-36.72)"/><rect x="341.43" y="395.48" width="55.57" height="0.21" transform="translate(-163.26 299.28) rotate(-36.72)"/><rect x="341.31" y="395.31" width="55.57" height="0.21" transform="translate(-163.19 299.17) rotate(-36.72)"/><rect x="341.18" y="395.14" width="55.57" height="0.21" transform="translate(-163.11 299.06) rotate(-36.72)"/><rect x="341.05" y="394.97" width="55.57" height="0.21" transform="translate(-163.03 298.96) rotate(-36.72)"/><rect x="340.93" y="394.8" width="55.57" height="0.21" transform="translate(-162.96 298.85) rotate(-36.72)"/><rect x="340.8" y="394.63" width="55.57" height="0.21" transform="translate(-162.88 298.74) rotate(-36.72)"/><rect x="340.68" y="394.47" width="55.57" height="0.21" transform="translate(-162.81 298.63) rotate(-36.72)"/><rect x="340.55" y="394.3" width="55.57" height="0.21" transform="translate(-162.73 298.52) rotate(-36.72)"/><rect x="340.42" y="394.13" width="55.57" height="0.21" transform="translate(-162.65 298.41) rotate(-36.72)"/><rect x="340.3" y="393.96" width="55.57" height="0.21" transform="translate(-162.58 298.3) rotate(-36.72)"/><rect x="340.17" y="393.79" width="55.57" height="0.21" transform="translate(-162.5 298.19) rotate(-36.72)"/><rect x="340.04" y="393.62" width="55.57" height="0.21" transform="translate(-162.42 298.08) rotate(-36.72)"/><rect x="339.92" y="393.45" width="55.57" height="0.21" transform="translate(-162.35 297.97) rotate(-36.72)"/><rect x="339.79" y="393.28" width="55.57" height="0.21" transform="translate(-162.27 297.86) rotate(-36.72)"/><rect x="339.66" y="393.11" width="55.57" height="0.21" transform="translate(-162.2 297.75) rotate(-36.72)"/><rect x="339.54" y="392.94" width="55.57" height="0.21" transform="translate(-162.12 297.64) rotate(-36.72)"/><rect x="339.41" y="392.77" width="55.57" height="0.21" transform="translate(-162.04 297.53) rotate(-36.72)"/><rect x="339.28" y="392.6" width="55.57" height="0.21" transform="translate(-161.97 297.43) rotate(-36.72)"/><rect x="339.16" y="392.43" width="55.57" height="0.21" transform="translate(-161.89 297.32) rotate(-36.72)"/><rect x="339.03" y="392.26" width="55.57" height="0.21" transform="translate(-161.81 297.21) rotate(-36.72)"/><rect x="338.91" y="392.09" width="55.57" height="0.21" transform="translate(-161.74 297.1) rotate(-36.72)"/><rect x="338.78" y="391.92" width="55.57" height="0.21" transform="translate(-161.66 296.99) rotate(-36.72)"/><rect x="338.65" y="391.75" width="55.57" height="0.21" transform="translate(-161.59 296.88) rotate(-36.72)"/><rect x="338.53" y="391.58" width="55.57" height="0.21" transform="translate(-161.51 296.77) rotate(-36.72)"/><rect x="338.4" y="391.41" width="55.57" height="0.21" transform="translate(-161.43 296.66) rotate(-36.72)"/><rect x="338.27" y="391.24" width="55.57" height="0.21" transform="translate(-161.36 296.55) rotate(-36.72)"/><rect x="338.15" y="391.08" width="55.57" height="0.21" transform="translate(-161.28 296.44) rotate(-36.72)"/><rect x="338.02" y="390.91" width="55.57" height="0.21" transform="translate(-161.2 296.33) rotate(-36.72)"/><rect x="337.89" y="390.74" width="55.57" height="0.21" transform="translate(-161.13 296.22) rotate(-36.72)"/><rect x="337.77" y="390.57" width="55.57" height="0.21" transform="translate(-161.05 296.11) rotate(-36.72)"/><rect x="337.64" y="390.4" width="55.57" height="0.21" transform="translate(-160.98 296.01) rotate(-36.72)"/><rect x="337.51" y="390.23" width="55.57" height="0.21" transform="translate(-160.9 295.9) rotate(-36.72)"/><rect x="337.39" y="390.06" width="55.57" height="0.21" transform="translate(-160.82 295.79) rotate(-36.72)"/><rect x="337.26" y="389.89" width="55.57" height="0.21" transform="translate(-160.75 295.68) rotate(-36.72)"/><rect x="337.14" y="389.72" width="55.57" height="0.21" transform="translate(-160.67 295.57) rotate(-36.72)"/><rect x="337.01" y="389.55" width="55.57" height="0.21" transform="translate(-160.59 295.46) rotate(-36.72)"/><rect x="336.88" y="389.38" width="55.57" height="0.21" transform="translate(-160.52 295.35) rotate(-36.72)"/><rect x="336.76" y="389.21" width="55.57" height="0.21" transform="translate(-160.44 295.24) rotate(-36.72)"/><rect x="336.63" y="389.04" width="55.57" height="0.21" transform="translate(-160.37 295.13) rotate(-36.72)"/><rect x="336.5" y="388.87" width="55.57" height="0.21" transform="translate(-160.29 295.02) rotate(-36.72)"/><rect x="336.38" y="388.7" width="55.57" height="0.21" transform="translate(-160.21 294.91) rotate(-36.72)"/><rect x="336.25" y="388.53" width="55.57" height="0.21" transform="translate(-160.14 294.8) rotate(-36.72)"/><rect x="336.12" y="388.36" width="55.57" height="0.21" transform="translate(-160.06 294.69) rotate(-36.72)"/><rect x="336" y="388.19" width="55.57" height="0.21" transform="translate(-159.98 294.59) rotate(-36.72)"/><rect x="335.87" y="388.02" width="55.57" height="0.21" transform="translate(-159.91 294.48) rotate(-36.72)"/><rect x="335.74" y="387.85" width="55.57" height="0.21" transform="translate(-159.83 294.37) rotate(-36.72)"/><rect x="335.62" y="387.69" width="55.57" height="0.21" transform="translate(-159.76 294.26) rotate(-36.72)"/><rect x="335.49" y="387.52" width="55.57" height="0.21" transform="translate(-159.68 294.15) rotate(-36.72)"/><rect x="335.36" y="387.35" width="55.57" height="0.21" transform="translate(-159.6 294.04) rotate(-36.72)"/><rect x="335.24" y="387.18" width="55.57" height="0.21" transform="translate(-159.53 293.93) rotate(-36.72)"/><rect x="335.11" y="387.01" width="55.57" height="0.21" transform="translate(-159.45 293.82) rotate(-36.72)"/><rect x="334.99" y="386.84" width="55.57" height="0.21" transform="translate(-159.37 293.71) rotate(-36.72)"/><rect x="334.86" y="386.67" width="55.57" height="0.21" transform="translate(-159.3 293.6) rotate(-36.72)"/><rect x="334.73" y="386.5" width="55.57" height="0.21" transform="translate(-159.22 293.49) rotate(-36.72)"/><rect x="334.61" y="386.33" width="55.57" height="0.21" transform="translate(-159.15 293.38) rotate(-36.72)"/><rect x="334.48" y="386.16" width="55.57" height="0.21" transform="translate(-159.07 293.27) rotate(-36.72)"/><rect x="334.35" y="385.99" width="55.57" height="0.21" transform="translate(-158.99 293.17) rotate(-36.72)"/><rect x="334.23" y="385.82" width="55.57" height="0.21" transform="translate(-158.92 293.06) rotate(-36.72)"/><rect x="334.1" y="385.65" width="55.57" height="0.21" transform="translate(-158.84 292.95) rotate(-36.72)"/><rect x="333.97" y="385.48" width="55.57" height="0.21" transform="translate(-158.76 292.84) rotate(-36.72)"/><rect x="333.85" y="385.31" width="55.57" height="0.21" transform="translate(-158.69 292.73) rotate(-36.72)"/><rect x="333.72" y="385.14" width="55.57" height="0.21" transform="translate(-158.61 292.62) rotate(-36.72)"/><rect x="333.59" y="384.97" width="55.57" height="0.21" transform="translate(-158.54 292.51) rotate(-36.72)"/><rect x="333.47" y="384.8" width="55.57" height="0.21" transform="translate(-158.46 292.4) rotate(-36.72)"/><rect x="333.34" y="384.63" width="55.57" height="0.21" transform="translate(-158.38 292.29) rotate(-36.72)"/><rect x="333.22" y="384.47" width="55.57" height="0.21" transform="translate(-158.31 292.18) rotate(-36.72)"/><rect x="333.09" y="384.3" width="55.57" height="0.21" transform="translate(-158.23 292.07) rotate(-36.72)"/><path d="M339.32,400.09,383,367.53l.12.17-44.54,33.23-.09-.11A2.92,2.92,0,0,0,339.32,400.09Z"/><path d="M339.65,399.58l43.18-32.22.13.17-43.64,32.56A4.45,4.45,0,0,0,339.65,399.58Z"/><path d="M339.82,399.18l42.89-32,.12.17-43.18,32.22C339.71,399.45,339.77,399.32,339.82,399.18Z"/><path d="M339.94,398.83,382.58,367l.13.17-42.89,32A3.59,3.59,0,0,0,339.94,398.83Z"/><path d="M340,398.51l42.44-31.66.13.17-42.64,31.81A3,3,0,0,0,340,398.51Z"/><path d="M340.06,398.21l42.27-31.53.12.17L340,398.51C340,398.41,340.05,398.31,340.06,398.21Z"/><path d="M340.09,397.93l42.11-31.41.13.16-42.27,31.53Z"/><path d="M340.1,397.66l42-31.31.13.17-42.11,31.41A2.44,2.44,0,0,0,340.1,397.66Z"/><path d="M340.09,397.4,382,366.18l.12.17-42,31.31C340.1,397.57,340.09,397.49,340.09,397.4Z"/><path d="M340.07,397.15,381.82,366l.13.17L340.09,397.4C340.08,397.32,340.08,397.24,340.07,397.15Z"/><path d="M340,396.91l41.66-31.07.13.17-41.75,31.14A2,2,0,0,0,340,396.91Z"/><path d="M340,396.69l41.58-31,.12.17L340,396.91C340,396.84,340,396.76,340,396.69Z"/><path d="M339.93,396.46l41.51-31,.13.17-41.58,31Z"/><path d="M339.87,396.25l41.44-30.92.13.17-41.51,31Z"/><path d="M339.79,396l41.4-30.88.12.17-41.44,30.92Z"/><path d="M339.71,395.84,381.06,365l.13.17L339.79,396C339.76,396,339.74,395.91,339.71,395.84Z"/><path d="M339.61,395.65l41.33-30.83.12.17-41.35,30.85Z"/><path d="M339.5,395.46l41.31-30.81.13.17-41.33,30.83Z"/><path d="M339.39,395.28l41.29-30.8.13.17L339.5,395.46A1.74,1.74,0,0,0,339.39,395.28Z"/><path d="M339.27,395.11l41.29-30.8.12.17-41.29,30.8Z"/><path d="M339.14,394.94l41.29-30.8.13.17-41.29,30.8Z"/><path d="M339,394.79,380.3,364l.13.17-41.29,30.8Z"/><path d="M338.84,394.64l41.34-30.84.12.17L339,394.79Z"/><path d="M338.68,394.49l41.37-30.86.13.17-41.34,30.84Z"/><path d="M338.51,394.36l41.41-30.9.13.17-41.37,30.86Z"/><path d="M338.33,394.23l41.47-30.94.12.17-41.41,30.9Z"/><path d="M338.13,394.11l41.54-31,.13.16-41.47,30.94Z"/><path d="M337.93,394l41.61-31,.13.17-41.54,31Z"/><path d="M337.7,393.9l41.72-31.11.12.17-41.61,31Z"/><path d="M337.47,393.81l41.82-31.19.13.17L337.7,393.9Z"/><path d="M337.23,393.73l41.94-31.28.12.17-41.82,31.19Z"/><path d="M337.18,393.72l-.22-.05L379,362.28l.13.17-41.94,31.28Z"/><path d="M336.7,393.6l42.21-31.49.13.17L337,393.67Z"/><path d="M336.43,393.54l42.36-31.6.12.17L336.7,393.6Z"/><path d="M336.16,393.47l42.5-31.7.13.17-42.36,31.6Z"/><path d="M335.89,393.41l42.64-31.81.13.17-42.5,31.7Z"/><path d="M335.63,393.34l42.78-31.91.12.17-42.64,31.81Z"/><path d="M335.36,393.28l42.92-32,.13.17-42.78,31.91Z"/><path d="M335.09,393.22l43.06-32.13.13.17-42.92,32Z"/><path d="M334.81,393.16,378,360.92l.12.17-43.06,32.13Z"/><path d="M334.53,393.11l43.37-32.36.13.17-43.22,32.24Z"/><path d="M334.24,393.06l43.53-32.48.13.17-43.37,32.36Z"/><path d="M334,393l43.69-32.59.12.17-43.53,32.48Z"/><path d="M333.68,393l43.84-32.71.13.17L334,393Z"/><path d="M333.39,392.9l44-32.83.13.17L333.68,393Z"/><path d="M333.11,392.85l44.16-33,.12.17-44,32.83Z"/><path d="M332.81,392.8l44.33-33.06.13.16-44.16,33Z"/><path d="M332.52,392.76,377,359.57l.12.17L332.81,392.8Z"/><path d="M332.44,392.75l-.1-.12,44.55-33.23.13.17-44.5,33.19Z"/><rect x="326.77" y="375.82" width="55.57" height="0.21" transform="translate(-154.42 286.61) rotate(-36.72)"/><rect x="326.64" y="375.65" width="55.57" height="0.21" transform="translate(-154.34 286.5) rotate(-36.72)"/><rect x="326.51" y="375.48" width="55.57" height="0.21" transform="translate(-154.27 286.39) rotate(-36.72)"/><rect x="326.39" y="375.31" width="55.57" height="0.21" transform="translate(-154.19 286.28) rotate(-36.72)"/><rect x="326.26" y="375.14" width="55.57" height="0.21" transform="translate(-154.11 286.17) rotate(-36.72)"/><rect x="326.13" y="374.97" width="55.57" height="0.21" transform="translate(-154.04 286.06) rotate(-36.72)"/><rect x="326.01" y="374.8" width="55.57" height="0.21" transform="translate(-153.96 285.96) rotate(-36.72)"/><rect x="325.88" y="374.63" width="55.57" height="0.21" transform="translate(-153.88 285.85) rotate(-36.72)"/><rect x="325.76" y="374.46" width="55.57" height="0.21" transform="translate(-153.81 285.74) rotate(-36.72)"/><rect x="325.63" y="374.3" width="55.57" height="0.21" transform="translate(-153.73 285.63) rotate(-36.72)"/><rect x="325.5" y="374.13" width="55.57" height="0.21" transform="translate(-153.66 285.52) rotate(-36.72)"/><rect x="325.38" y="373.96" width="55.57" height="0.21" transform="translate(-153.58 285.41) rotate(-36.72)"/><rect x="325.25" y="373.79" width="55.57" height="0.21" transform="translate(-153.5 285.3) rotate(-36.72)"/><rect x="325.12" y="373.62" width="55.57" height="0.21" transform="translate(-153.43 285.19) rotate(-36.72)"/><rect x="325" y="373.45" width="55.57" height="0.21" transform="translate(-153.35 285.08) rotate(-36.72)"/><rect x="324.87" y="373.28" width="55.57" height="0.21" transform="translate(-153.27 284.97) rotate(-36.72)"/><rect x="324.74" y="373.11" width="55.57" height="0.21" transform="translate(-153.2 284.86) rotate(-36.72)"/><rect x="324.62" y="372.94" width="55.57" height="0.21" transform="translate(-153.12 284.75) rotate(-36.72)"/><rect x="324.49" y="372.77" width="55.57" height="0.21" transform="translate(-153.05 284.64) rotate(-36.72)"/><rect x="324.36" y="372.6" width="55.57" height="0.21" transform="translate(-152.97 284.54) rotate(-36.72)"/><rect x="324.24" y="372.43" width="55.57" height="0.21" transform="translate(-152.89 284.43) rotate(-36.72)"/><rect x="324.11" y="372.26" width="55.57" height="0.21" transform="translate(-152.82 284.32) rotate(-36.72)"/><rect x="323.99" y="372.09" width="55.57" height="0.21" transform="translate(-152.74 284.21) rotate(-36.72)"/><rect x="323.86" y="371.92" width="55.57" height="0.21" transform="translate(-152.66 284.1) rotate(-36.72)"/><rect x="323.73" y="371.75" width="55.57" height="0.21" transform="translate(-152.59 283.99) rotate(-36.72)"/><rect x="323.61" y="371.58" width="55.57" height="0.21" transform="translate(-152.51 283.88) rotate(-36.72)"/><rect x="323.48" y="371.41" width="55.57" height="0.21" transform="translate(-152.44 283.77) rotate(-36.72)"/><rect x="323.35" y="371.24" width="55.57" height="0.21" transform="translate(-152.36 283.66) rotate(-36.72)"/><rect x="323.23" y="371.08" width="55.57" height="0.21" transform="translate(-152.28 283.55) rotate(-36.72)"/><rect x="323.1" y="370.91" width="55.57" height="0.21" transform="translate(-152.21 283.44) rotate(-36.72)"/><rect x="322.97" y="370.74" width="55.57" height="0.21" transform="translate(-152.13 283.33) rotate(-36.72)"/><rect x="322.85" y="370.57" width="55.57" height="0.21" transform="translate(-152.05 283.22) rotate(-36.72)"/><rect x="322.72" y="370.4" width="55.57" height="0.21" transform="translate(-151.98 283.11) rotate(-36.72)"/><rect x="322.59" y="370.23" width="55.57" height="0.21" transform="translate(-151.9 283.01) rotate(-36.72)"/><path d="M337.74,379.37l34.72-25.91.13.17-44.54,33.23-.13-.17,8.65-6.45A2.9,2.9,0,0,0,337.74,379.37Z"/><path d="M338.09,378.84l34.25-25.55.12.17-34.72,25.91A3.24,3.24,0,0,0,338.09,378.84Z"/><path d="M336.57,380.24l-8.65,6.45-.13-.17,8.2-6.11A2.77,2.77,0,0,0,336.57,380.24Z"/><path d="M338.29,378.43l33.92-25.3.13.16-34.25,25.55A3.11,3.11,0,0,0,338.29,378.43Z"/><path d="M336,380.41l-8.2,6.11-.12-.16,7.9-5.9A3,3,0,0,0,336,380.41Z"/><path d="M339.58,377.47a252,252,0,0,0,32.63-24.34"/><path d="M327.67,386.36l6.65-5"/></g><path d="M327.82,389.66l2.51-.11a269.46,269.46,0,0,1,54.36,3L400.52,395l1-6.54L385.73,386a276.93,276.93,0,0,0-55.7-3.07l-8.17-.05Z"/><path class="cls-5" d="M248.91,315.06A19,19,0,0,0,242,319.5c-6.68,6.81-5.39,16.75-6.17,26.86a83.42,83.42,0,0,1-8.36,29.91"/><path d="M227.75,374.9c1.56,1.88,5.64,1.07,8.05-.38,5.39-3.25,6.25-12,4.66-13.31-.41-.33-.78,0-4,1.6-5.77,2.89-6.39,2.83-7.37,4.09C227.36,369.09,226.24,373.09,227.75,374.9Z"/><path d="M223.71,377.32c-1.16-.41-1.16-4.27-.65-7,1.14-6.17,5.68-11.18,6.54-10.47.22.19.1.65-.41,4.2-.92,6.31-.82,6.8-1.38,8.25C226.83,374.81,224.83,377.71,223.71,377.32Z"/></g></g></svg>