<svg xmlns="http://www.w3.org/2000/svg" viewBox="0 0 195.31 47.83"><defs><style>.cls-1{fill:#80171c;}.cls-2{fill:#1d1d1b;}.cls-3{fill:#fff;}.cls-4,.cls-5{fill:none;stroke-miterlimit:10;}.cls-4{stroke:#1d1d1b;}.cls-5{stroke:#80171c;stroke-linecap:round;}</style></defs><g id="Слой_2" data-name="Слой 2"><g id="Слой_1-2" data-name="Слой 1"><rect class="cls-1" x="2.83" width="45" height="45" rx="11.5"/><rect class="cls-2" y="2.83" width="45" height="45" rx="11.5"/><path class="cls-3" d="M8.55,36.27l6.44-21h5c.4,0,.91-.12,1.18.08s.31.71.42,1.09q3,9.72,6,19.45l.13.42-.39,0H23a.43.43,0,0,1-.5-.38c-.45-1.56-.94-3.11-1.4-4.67a.4.4,0,0,0-.46-.36H15.32c-.28,0-.38.1-.45.37-.42,1.56-.87,3.11-1.28,4.66-.08.29-.2.39-.5.38H9Zm9.37-17.43L15.7,27.32h4.6Z"/><path class="cls-3" d="M35,36.27H30.3V21.05H35Z"/><path class="cls-3" d="M32.32,19.11a2.13,2.13,0,0,1-1.95-1.35,2.34,2.34,0,0,1,.33-2.57A2.74,2.74,0,0,1,34.36,15a2.41,2.41,0,0,1,.2,3.37A2.71,2.71,0,0,1,32.32,19.11Z"/><rect class="cls-4" x="55.45" y="11.67" width="139.35" height="16" rx="8"/><line class="cls-5" x1="62.81" y1="19.67" x2="176.2" y2="19.67"/><path class="cls-2" d="M58.82,43.8V35.53h4.06V43.8h-.94V36.17H59.75V43.8Z"/><path class="cls-2" d="M64.21,45.43V36.87H65l0,.62a1.17,1.17,0,0,1,.41-.5,1.47,1.47,0,0,1,.92-.21,1.87,1.87,0,0,1,1,.22,1.18,1.18,0,0,1,.49.61,2.87,2.87,0,0,1,.14.92v3.41a3.56,3.56,0,0,1-.13,1,1.24,1.24,0,0,1-.47.7,2.3,2.3,0,0,1-1.89.07,1.11,1.11,0,0,1-.46-.42v2.12Zm1.91-2.06a1.37,1.37,0,0,0,.6-.11A.81.81,0,0,0,67,43a1.19,1.19,0,0,0,.11-.42c0-.16,0-.32,0-.5V38.66c0-.17,0-.34,0-.49a1.18,1.18,0,0,0-.11-.43.77.77,0,0,0-.31-.31,1.37,1.37,0,0,0-.6-.11,1.12,1.12,0,0,0-.61.14.78.78,0,0,0-.3.37,1.41,1.41,0,0,0-.12.5c0,.18,0,.34,0,.5v3.31a3,3,0,0,0,.06.62.76.76,0,0,0,.28.45A1.19,1.19,0,0,0,66.12,43.37Z"/><path class="cls-2" d="M71.06,43.9a2.42,2.42,0,0,1-1.2-.24A1.2,1.2,0,0,1,69.3,43a3.52,3.52,0,0,1-.15-1.1V38.64a3.15,3.15,0,0,1,.14-1,1.2,1.2,0,0,1,.56-.66,2.35,2.35,0,0,1,1.21-.25,2.28,2.28,0,0,1,1.2.25,1.18,1.18,0,0,1,.55.66,2.86,2.86,0,0,1,.15,1v3.23a3.52,3.52,0,0,1-.15,1.1,1.25,1.25,0,0,1-.57.69A2.39,2.39,0,0,1,71.06,43.9Zm0-.53a1,1,0,0,0,.7-.2.88.88,0,0,0,.27-.49,3.21,3.21,0,0,0,.06-.63V38.59A3,3,0,0,0,72,38a.82.82,0,0,0-.27-.48,1,1,0,0,0-.7-.19,1,1,0,0,0-.7.19.74.74,0,0,0-.28.48,3,3,0,0,0-.06.61v3.46a3.21,3.21,0,0,0,.06.63.79.79,0,0,0,.28.49A1,1,0,0,0,71.06,43.37Z"/><path class="cls-2" d="M73.83,45.3v-2h.63a.91.91,0,0,0,.34-.14.93.93,0,0,0,.28-.37,2,2,0,0,0,.16-.66l.52-5.2h3.33v6.37H80.2v2h-.74V43.94H74.58V45.3Zm1.89-2h2.46V37.53H76.56l-.44,4.34q0,.35-.12.78A1,1,0,0,1,75.72,43.26Z"/><path class="cls-2" d="M81.11,43.8V36.87h2.48a1.82,1.82,0,0,1,1.14.33,1.26,1.26,0,0,1,.44,1.07v.52a1.35,1.35,0,0,1-.37,1,1.47,1.47,0,0,1-1,.37v0a1.56,1.56,0,0,1,1,.36,1.42,1.42,0,0,1,.42,1.15v.43a2.12,2.12,0,0,1-.22,1.08,1.15,1.15,0,0,1-.64.5,3.1,3.1,0,0,1-1,.13ZM82,39.91h1.12a1.24,1.24,0,0,0,.86-.25,1,1,0,0,0,.29-.8v-.59a.78.78,0,0,0-.27-.64,1,1,0,0,0-.68-.23H82Zm0,3.4h1.22a1.64,1.64,0,0,0,.58-.09.68.68,0,0,0,.38-.35,1.7,1.7,0,0,0,.13-.76v-.55a1.06,1.06,0,0,0-.16-.64.88.88,0,0,0-.42-.32,1.78,1.78,0,0,0-.59-.09H82Z"/><path class="cls-2" d="M86.47,43.8V36.89h.78v5.32l2.33-5.32h.78V43.8h-.77V38.29l-1.17,2.76c-.4.91-.8,1.83-1.21,2.75Z"/><path class="cls-2" d="M91.54,43.8V36.87h.87v3H94.6v-3h.87V43.8H94.6V40.5H92.41v3.3Z"/><path class="cls-2" d="M97,45.44a2.86,2.86,0,0,1-.53,0l-.35-.07v-.52a.51.51,0,0,0,.18.06,1.89,1.89,0,0,0,.35,0,1.73,1.73,0,0,0,.47-.07.66.66,0,0,0,.42-.39c.06-.09.12-.2.19-.32a.54.54,0,0,0,0-.42l-1.6-6.82h.9l1.28,6.05h0l1.23-6.05h.83l-1.51,6.67A2.93,2.93,0,0,1,98.26,45,1.63,1.63,0,0,1,97,45.44Z"/><path class="cls-2" d="M102.21,43.8V37.52h-1.47v-.65h3.85v.65h-1.5V43.8Z"/><path class="cls-2" d="M105.37,43.8V36.9h.87v2.16h1.38a2.16,2.16,0,0,1,1,.19,1.08,1.08,0,0,1,.52.59,2.71,2.71,0,0,1,.15,1v.7a5.15,5.15,0,0,1-.08,1,1.7,1.7,0,0,1-.28.71,1.16,1.16,0,0,1-.53.42,2.14,2.14,0,0,1-.87.14Zm.87-.5h1.13a1.09,1.09,0,0,0,.69-.18.8.8,0,0,0,.3-.48,2.84,2.84,0,0,0,.08-.69V41a2.87,2.87,0,0,0-.07-.67.81.81,0,0,0-.28-.49,1.09,1.09,0,0,0-.72-.19h-1.13Zm4.39.5V36.87h.86V43.8Z"/><path class="cls-2" d="M112.82,43.8V36.89h.78v5.32l2.33-5.32h.78V43.8h-.77V38.29c-.39.92-.78,1.84-1.18,2.76s-.79,1.83-1.2,2.75Zm1.93-7.63a1.44,1.44,0,0,1-.83-.21,1.21,1.21,0,0,1-.41-.5,1.7,1.7,0,0,1-.13-.53h.52a.83.83,0,0,0,.86.78.89.89,0,0,0,.59-.19.81.81,0,0,0,.28-.59h.52a1.51,1.51,0,0,1-.15.56,1.22,1.22,0,0,1-.44.49A1.5,1.5,0,0,1,114.75,36.17Z"/><path class="cls-2" d="M120.85,45.44a2.75,2.75,0,0,1-.52,0l-.36-.07v-.52a.59.59,0,0,0,.19.06,1.78,1.78,0,0,0,.34,0,1.67,1.67,0,0,0,.47-.07.65.65,0,0,0,.43-.39c.06-.09.12-.2.19-.32a.54.54,0,0,0,0-.42L120,36.87h.9l1.27,6.05h0l1.23-6.05h.83l-1.52,6.67a2.93,2.93,0,0,1-.65,1.43A1.64,1.64,0,0,1,120.85,45.44Z"/><path class="cls-2" d="M125.08,45.43V36.87h.81l0,.62a1.17,1.17,0,0,1,.41-.5,1.49,1.49,0,0,1,.92-.21,1.87,1.87,0,0,1,1,.22,1.18,1.18,0,0,1,.49.61,2.87,2.87,0,0,1,.14.92v3.41a3.56,3.56,0,0,1-.13,1,1.24,1.24,0,0,1-.47.7,1.86,1.86,0,0,1-1,.24,1.81,1.81,0,0,1-.84-.17,1.14,1.14,0,0,1-.47-.42v2.12ZM127,43.37a1.37,1.37,0,0,0,.6-.11.81.81,0,0,0,.31-.3,1.19,1.19,0,0,0,.11-.42c0-.16,0-.32,0-.5V38.66c0-.17,0-.34,0-.49a1.18,1.18,0,0,0-.11-.43.77.77,0,0,0-.31-.31,1.37,1.37,0,0,0-.6-.11,1.15,1.15,0,0,0-.61.14.78.78,0,0,0-.3.37,1.41,1.41,0,0,0-.12.5c0,.18,0,.34,0,.5v3.31a3,3,0,0,0,.06.62.81.81,0,0,0,.28.45A1.19,1.19,0,0,0,127,43.37Z"/><path class="cls-2" d="M131.93,43.9a2.45,2.45,0,0,1-1.2-.24,1.24,1.24,0,0,1-.56-.69,3.52,3.52,0,0,1-.15-1.1V38.64a3.15,3.15,0,0,1,.14-1,1.2,1.2,0,0,1,.56-.66,2.37,2.37,0,0,1,1.21-.25,2.28,2.28,0,0,1,1.2.25,1.24,1.24,0,0,1,.56.66,3.15,3.15,0,0,1,.14,1v3.23a3.52,3.52,0,0,1-.15,1.1,1.21,1.21,0,0,1-.57.69A2.36,2.36,0,0,1,131.93,43.9Zm0-.53a1,1,0,0,0,.7-.2.88.88,0,0,0,.27-.49,3.21,3.21,0,0,0,.06-.63V38.59a3,3,0,0,0-.06-.61.82.82,0,0,0-.27-.48,1,1,0,0,0-.7-.19,1,1,0,0,0-.7.19A.79.79,0,0,0,131,38a3,3,0,0,0-.06.61v3.46a3.21,3.21,0,0,0,.06.63.84.84,0,0,0,.28.49A1,1,0,0,0,131.93,43.37Z"/><path class="cls-2" d="M135,43.8V36.87h2.48a1.87,1.87,0,0,1,1.15.33,1.26,1.26,0,0,1,.43,1.07v.52a1.35,1.35,0,0,1-.37,1,1.47,1.47,0,0,1-1,.37v0a1.56,1.56,0,0,1,1,.36,1.42,1.42,0,0,1,.42,1.15v.43a2.12,2.12,0,0,1-.22,1.08,1.15,1.15,0,0,1-.64.5,3.05,3.05,0,0,1-1,.13Zm.92-3.89H137a1.29,1.29,0,0,0,.87-.25,1,1,0,0,0,.28-.8v-.59a.78.78,0,0,0-.27-.64,1,1,0,0,0-.68-.23H135.9Zm0,3.4h1.22a1.64,1.64,0,0,0,.58-.09.68.68,0,0,0,.38-.35,1.7,1.7,0,0,0,.13-.76v-.55a1.06,1.06,0,0,0-.16-.64.8.8,0,0,0-.42-.32,1.78,1.78,0,0,0-.59-.09H135.9Z"/><path class="cls-2" d="M142.29,43.93a3.29,3.29,0,0,1-1.14-.16,1.09,1.09,0,0,1-.63-.6,3.2,3.2,0,0,1-.19-1.26V38.45a1.69,1.69,0,0,1,.44-1.33,2.31,2.31,0,0,1,1.46-.36,2.29,2.29,0,0,1,1.44.36,1.69,1.69,0,0,1,.44,1.33v1.8H141.2v2a1.53,1.53,0,0,0,.21.93,1.08,1.08,0,0,0,.85.26,1,1,0,0,0,.78-.26,1.58,1.58,0,0,0,.2-.93v-.9h.87v.59a3.16,3.16,0,0,1-.2,1.25,1.11,1.11,0,0,1-.59.61A2.73,2.73,0,0,1,142.29,43.93ZM141.2,39.8h2V38.38a1.46,1.46,0,0,0-.2-.85,1,1,0,0,0-.81-.27,1,1,0,0,0-.82.27,1.38,1.38,0,0,0-.21.85Z"/><path class="cls-2" d="M145.2,43.8V36.87h.87v3h2.2v-3h.86V43.8h-.86V40.5h-2.2v3.3Z"/><path class="cls-2" d="M150.3,43.8V36.9h.86v2.16h1.39a2.16,2.16,0,0,1,1,.19,1.16,1.16,0,0,1,.52.59,2.71,2.71,0,0,1,.15,1v.7a6,6,0,0,1-.08,1,1.85,1.85,0,0,1-.28.71,1.14,1.14,0,0,1-.54.42,2.12,2.12,0,0,1-.86.14Zm.86-.5h1.14a1.06,1.06,0,0,0,.68-.18.86.86,0,0,0,.31-.48,2.87,2.87,0,0,0,.07-.69V41a3.55,3.55,0,0,0-.06-.67.82.82,0,0,0-.29-.49,1.08,1.08,0,0,0-.71-.19h-1.14Z"/></g></g></svg>