<svg xmlns="http://www.w3.org/2000/svg" viewBox="0 0 197.31 47.83"><defs><style>.cls-1{fill:#80171c;}.cls-2{fill:#1d1d1b;}.cls-3{fill:#fff;}.cls-4,.cls-5{fill:none;stroke-miterlimit:10;}.cls-4{stroke:#1d1d1b;}.cls-5{stroke:#80171c;stroke-linecap:round;}</style></defs><g id="Слой_2" data-name="Слой 2"><g id="Слой_1-2" data-name="Слой 1"><rect class="cls-1" x="2.83" width="45" height="45" rx="11.5"/><rect class="cls-2" y="2.83" width="45" height="45" rx="11.5"/><path class="cls-3" d="M34.84,36.82H30.51l-.23-2.25a13.79,13.79,0,0,1-1.14,1.23,6.39,6.39,0,0,1-9.36-1.52,9.71,9.71,0,0,1-1.49-6.21,8.92,8.92,0,0,1,1.92-5.26,6.81,6.81,0,0,1,7.66-2.08,15.36,15.36,0,0,1,1.89,1.12v-8.4h5.08Zm-5.07-8.2h0c0-.51,0-1,0-1.52a3,3,0,0,0-2-2.78,3.09,3.09,0,0,0-3.4,1.05,6.29,6.29,0,0,0-.17,6.41,3.07,3.07,0,0,0,3.43,1.28,3,3,0,0,0,2.16-2.86C29.78,29.67,29.77,29.14,29.77,28.62Z"/><path class="cls-3" d="M10.16,14.62H15.1V36.78H10.16Z"/><rect class="cls-4" x="55.07" y="12.58" width="141.73" height="14.17" rx="7.09"/><line class="cls-5" x1="62.56" y1="19.67" x2="130.6" y2="19.67"/><path class="cls-2" d="M59.12,43.8V35.53h3.71v.64H60v1.54h1.39a2.22,2.22,0,0,1,1,.18,1.11,1.11,0,0,1,.54.57,2.39,2.39,0,0,1,.18,1v2.28a3.78,3.78,0,0,1-.11,1,1.43,1.43,0,0,1-.31.63,1.18,1.18,0,0,1-.54.35,2.62,2.62,0,0,1-.79.1Zm2-.5a1.05,1.05,0,0,0,.67-.18.8.8,0,0,0,.3-.48,2.42,2.42,0,0,0,.08-.69V39.59a2.7,2.7,0,0,0-.07-.65.91.91,0,0,0-.29-.49,1.15,1.15,0,0,0-.72-.18H60v5Z"/><path class="cls-2" d="M65.63,43.9a2.5,2.5,0,0,1-.66-.09,1.06,1.06,0,0,1-.56-.42,1.85,1.85,0,0,1-.23-1v-.67a1.55,1.55,0,0,1,.43-1.13,4,4,0,0,1,1.17-.76q.48-.24.78-.42A1.39,1.39,0,0,0,67,39a1.07,1.07,0,0,0,.16-.6v-.29a.85.85,0,0,0-.14-.52.71.71,0,0,0-.38-.25,1.51,1.51,0,0,0-.48-.07c-.42,0-.69.11-.82.34a2,2,0,0,0-.2,1v.59h-.8v-.67a2.91,2.91,0,0,1,.14-.92A1.2,1.2,0,0,1,65,37a2.36,2.36,0,0,1,1.15-.23,3.08,3.08,0,0,1,1.2.18,1,1,0,0,1,.53.52,2.17,2.17,0,0,1,.13.8V43.8h-.85v-.87a1.37,1.37,0,0,1-.61.73A1.9,1.9,0,0,1,65.63,43.9Zm.32-.59a1,1,0,0,0,.91-.45,2.08,2.08,0,0,0,.29-1.19V39.46a1.25,1.25,0,0,1-.46.41l-.66.36a2.86,2.86,0,0,0-.73.58,1.21,1.21,0,0,0-.26.84v.54a1.4,1.4,0,0,0,.14.74.61.61,0,0,0,.35.31A1.23,1.23,0,0,0,66,43.31Z"/><path class="cls-2" d="M71.38,43.8a2,2,0,0,1-1.46-.45,1.78,1.78,0,0,1-.43-1.27v-.73h.84v.53a1.42,1.42,0,0,0,.29,1,1,1,0,0,0,.79.32,1,1,0,0,0,.8-.32,1.48,1.48,0,0,0,.28-1v-.37a1.09,1.09,0,0,0-.35-.84,1.3,1.3,0,0,0-.94-.33h-1v-.49h.91a1.48,1.48,0,0,0,.58-.08,1,1,0,0,0,.45-.28,1.5,1.5,0,0,0,.23-.3.94.94,0,0,0,.07-.41v-.49a1,1,0,0,0-1-1,1,1,0,0,0-.82.3,1.28,1.28,0,0,0-.23.79v.47h-.85v-.53A1.52,1.52,0,0,1,70,37.17a2.06,2.06,0,0,1,1.42-.44,2.21,2.21,0,0,1,1.49.4,1.58,1.58,0,0,1,.47,1.23v.35a1.39,1.39,0,0,1-.31.9,1.52,1.52,0,0,1-.92.51,1.64,1.64,0,0,1,1,.49,1.32,1.32,0,0,1,.33.9V42a1.79,1.79,0,0,1-.48,1.38A2.24,2.24,0,0,1,71.38,43.8Z"/><path class="cls-2" d="M76.71,43.9a2.38,2.38,0,0,1-1.19-.24A1.16,1.16,0,0,1,75,43a3.52,3.52,0,0,1-.15-1.1V38.64a3.15,3.15,0,0,1,.14-1,1.16,1.16,0,0,1,.56-.66,3,3,0,0,1,2.41,0,1.22,1.22,0,0,1,.55.66,2.86,2.86,0,0,1,.15,1v3.23a3.23,3.23,0,0,1-.16,1.1,1.24,1.24,0,0,1-.56.69A2.41,2.41,0,0,1,76.71,43.9Zm0-.53a1,1,0,0,0,.7-.2,1,1,0,0,0,.28-.49,3.28,3.28,0,0,0,.06-.63V38.59a3,3,0,0,0-.06-.61.89.89,0,0,0-.28-.48,1,1,0,0,0-.7-.19,1.06,1.06,0,0,0-.7.19.79.79,0,0,0-.28.48,4,4,0,0,0,0,.61v3.46a4.34,4.34,0,0,0,0,.63.84.84,0,0,0,.28.49A1.06,1.06,0,0,0,76.71,43.37Z"/><path class="cls-2" d="M79.76,43.8V36.87h2.48a1.85,1.85,0,0,1,1.15.33,1.26,1.26,0,0,1,.43,1.07v.52a1.35,1.35,0,0,1-.37,1,1.42,1.42,0,0,1-1,.37v0a1.56,1.56,0,0,1,1,.36,1.42,1.42,0,0,1,.42,1.15v.43a2.12,2.12,0,0,1-.23,1.08,1.16,1.16,0,0,1-.63.5,3.14,3.14,0,0,1-1,.13Zm.93-3.89h1.12a1.26,1.26,0,0,0,.86-.25,1,1,0,0,0,.29-.8v-.59a.76.76,0,0,0-.28-.64A1,1,0,0,0,82,37.4H80.69Zm0,3.4h1.22a1.72,1.72,0,0,0,.58-.09.72.72,0,0,0,.38-.35,1.86,1.86,0,0,0,.13-.76v-.55a1.14,1.14,0,0,0-.16-.64.88.88,0,0,0-.42-.32,1.8,1.8,0,0,0-.6-.09H80.69Z"/><path class="cls-2" d="M85.11,43.8V36.9H86v2.16h1.39a2.12,2.12,0,0,1,1,.19,1.08,1.08,0,0,1,.52.59,2.49,2.49,0,0,1,.16,1v.7a5.09,5.09,0,0,1-.09,1,1.7,1.7,0,0,1-.28.71,1.16,1.16,0,0,1-.53.42,2.14,2.14,0,0,1-.87.14Zm.87-.5h1.14a1.08,1.08,0,0,0,.68-.18.8.8,0,0,0,.3-.48,2.84,2.84,0,0,0,.08-.69V41a3.55,3.55,0,0,0-.06-.67.88.88,0,0,0-.29-.49,1.08,1.08,0,0,0-.71-.19H86Zm4.4.5V36.87h.85V43.8Z"/><path class="cls-2" d="M92.56,43.8V36.89h.78v5.32l2.33-5.32h.78V43.8h-.77V38.29L94.51,41c-.4.92-.8,1.84-1.21,2.76Zm1.93-7.63a1.38,1.38,0,0,1-.82-.21,1.17,1.17,0,0,1-.42-.5,1.7,1.7,0,0,1-.13-.53h.52a.87.87,0,0,0,.29.58.84.84,0,0,0,.58.2.86.86,0,0,0,.58-.19.78.78,0,0,0,.28-.59h.52a1.51,1.51,0,0,1-.15.56,1.21,1.21,0,0,1-.44.49A1.47,1.47,0,0,1,94.49,36.17Z"/><path class="cls-2" d="M100.6,45.44a2.86,2.86,0,0,1-.53,0l-.36-.07v-.52a.7.7,0,0,0,.19.06,1.89,1.89,0,0,0,.35,0,1.73,1.73,0,0,0,.47-.07.66.66,0,0,0,.42-.39c.06-.09.12-.2.19-.32a.54.54,0,0,0,0-.42l-1.6-6.82h.9L102,42.92h0l1.23-6.05H104l-1.51,6.67a2.93,2.93,0,0,1-.66,1.43A1.63,1.63,0,0,1,100.6,45.44Z"/><path class="cls-2" d="M104.82,45.43V36.87h.82l0,.62a1.26,1.26,0,0,1,.41-.51,1.56,1.56,0,0,1,.92-.21,1.86,1.86,0,0,1,1,.23,1.13,1.13,0,0,1,.49.61,2.6,2.6,0,0,1,.14.91v3.42a4,4,0,0,1-.12,1,1.31,1.31,0,0,1-.48.7,1.84,1.84,0,0,1-1,.24,1.81,1.81,0,0,1-.84-.17,1.14,1.14,0,0,1-.47-.42v2.12Zm1.91-2.06a1.37,1.37,0,0,0,.6-.11.81.81,0,0,0,.31-.3,1.19,1.19,0,0,0,.11-.42c0-.16,0-.32,0-.5V38.66c0-.17,0-.34,0-.49a1.18,1.18,0,0,0-.11-.43.77.77,0,0,0-.31-.31,1.37,1.37,0,0,0-.6-.11,1.11,1.11,0,0,0-.6.14.8.8,0,0,0-.31.37,1.4,1.4,0,0,0-.11.5c0,.18,0,.34,0,.5v3.31a2.45,2.45,0,0,0,.07.62.72.72,0,0,0,.28.45A1.21,1.21,0,0,0,106.73,43.37Z"/><path class="cls-2" d="M111.67,43.9a2.45,2.45,0,0,1-1.2-.24,1.24,1.24,0,0,1-.56-.69,3.87,3.87,0,0,1-.14-1.1V38.64a2.87,2.87,0,0,1,.14-1,1.16,1.16,0,0,1,.56-.66,2.33,2.33,0,0,1,1.2-.25,2.28,2.28,0,0,1,1.2.25,1.2,1.2,0,0,1,.56.66,2.87,2.87,0,0,1,.14,1v3.23a3.52,3.52,0,0,1-.15,1.1,1.21,1.21,0,0,1-.57.69A2.36,2.36,0,0,1,111.67,43.9Zm0-.53a1,1,0,0,0,.7-.2.88.88,0,0,0,.27-.49,2.65,2.65,0,0,0,.07-.63V38.59a2.43,2.43,0,0,0-.07-.61.82.82,0,0,0-.27-.48,1,1,0,0,0-.7-.19,1,1,0,0,0-.7.19.79.79,0,0,0-.28.48,3,3,0,0,0-.06.61v3.46a3.28,3.28,0,0,0,.06.63.84.84,0,0,0,.28.49A1,1,0,0,0,111.67,43.37Z"/><path class="cls-2" d="M114.72,43.8V36.87h2.48a1.85,1.85,0,0,1,1.15.33,1.26,1.26,0,0,1,.43,1.07v.52a1.35,1.35,0,0,1-.37,1,1.47,1.47,0,0,1-1,.37v0a1.56,1.56,0,0,1,1,.36,1.42,1.42,0,0,1,.42,1.15v.43a2.12,2.12,0,0,1-.22,1.08,1.15,1.15,0,0,1-.64.5,3.05,3.05,0,0,1-1,.13Zm.93-3.89h1.12a1.26,1.26,0,0,0,.86-.25,1,1,0,0,0,.28-.8v-.59a.78.78,0,0,0-.27-.64,1,1,0,0,0-.68-.23h-1.31Zm0,3.4h1.21a1.74,1.74,0,0,0,.59-.09.7.7,0,0,0,.37-.35,1.69,1.69,0,0,0,.14-.76v-.55a1.14,1.14,0,0,0-.16-.64.88.88,0,0,0-.42-.32,1.89,1.89,0,0,0-.6-.09h-1.13Z"/><path class="cls-2" d="M122,43.93a3.48,3.48,0,0,1-1.13-.16,1.09,1.09,0,0,1-.63-.6,3.18,3.18,0,0,1-.2-1.26V38.45a1.69,1.69,0,0,1,.44-1.33,2.33,2.33,0,0,1,1.46-.36,2.27,2.27,0,0,1,1.44.36,1.69,1.69,0,0,1,.44,1.33v1.8h-2.91v2a1.53,1.53,0,0,0,.21.93,1.08,1.08,0,0,0,.85.26,1,1,0,0,0,.79-.26,1.59,1.59,0,0,0,.19-.93v-.9h.87v.59a3,3,0,0,1-.2,1.25,1.07,1.07,0,0,1-.59.61A2.73,2.73,0,0,1,122,43.93Zm-1.09-4.13h2V38.38a1.46,1.46,0,0,0-.19-.85,1,1,0,0,0-.82-.27,1,1,0,0,0-.82.27,1.38,1.38,0,0,0-.21.85Z"/><path class="cls-2" d="M124.94,43.8V36.87h.87v3H128v-3h.87V43.8H128V40.5h-2.2v3.3Z"/><path class="cls-2" d="M130,43.8V36.9h.87v2.16h1.38a2.16,2.16,0,0,1,1,.19,1.16,1.16,0,0,1,.52.59,2.71,2.71,0,0,1,.15,1v.7a6,6,0,0,1-.08,1,1.85,1.85,0,0,1-.28.71,1.16,1.16,0,0,1-.53.42,2.2,2.2,0,0,1-.87.14Zm.87-.5H132a1.09,1.09,0,0,0,.69-.18.85.85,0,0,0,.3-.48,2.87,2.87,0,0,0,.07-.69V41a3.55,3.55,0,0,0-.06-.67.82.82,0,0,0-.29-.49,1.06,1.06,0,0,0-.71-.19h-1.13Z"/></g></g></svg>