<svg xmlns="http://www.w3.org/2000/svg" viewBox="0 0 195.36 47.83"><defs><style>.cls-1{fill:#80171c;}.cls-2{fill:#1d1d1b;}.cls-3{fill:#fff;}.cls-4,.cls-5{fill:none;stroke-miterlimit:10;}.cls-4{stroke:#1d1d1b;}.cls-5{stroke:#80171c;stroke-linecap:round;}</style></defs><g id="Слой_2" data-name="Слой 2"><g id="Слой_1-2" data-name="Слой 1"><rect class="cls-1" x="2.83" width="45" height="45" rx="11.5"/><rect class="cls-2" y="2.83" width="45" height="45" rx="11.5"/><path class="cls-3" d="M39.08,36.06H35L34.82,34a13.41,13.41,0,0,1-1.07,1.15A6,6,0,0,1,25,33.69a9.07,9.07,0,0,1-1.4-5.8A8.44,8.44,0,0,1,25.41,23,6.34,6.34,0,0,1,32.56,21a12.39,12.39,0,0,1,1.77,1V14.23h4.75ZM34.34,28.4h0c0-.47,0-.95,0-1.42a2.81,2.81,0,0,0-1.9-2.59,2.87,2.87,0,0,0-3.17,1,5.87,5.87,0,0,0-.17,6,2.89,2.89,0,0,0,3.21,1.19,2.77,2.77,0,0,0,2-2.67C34.35,29.38,34.34,28.89,34.34,28.4Z"/><path class="cls-3" d="M22.75,16.38l-1.33,2.21c-1.42,2.34-2.83,4.68-4.26,7a.59.59,0,0,0,0,.71Q20,31,22.89,35.7c.08.13.14.26.25.46-.21,0-.36.05-.5.05-1.31,0-2.63,0-3.94,0a1,1,0,0,1-1-.63c-1.11-2.13-2.26-4.25-3.39-6.37-.08-.15-.18-.29-.31-.5-.11.18-.18.29-.24.41-1.2,2.24-2.39,4.49-3.6,6.73a.77.77,0,0,1-.48.36c-1.36,0-2.72,0-4.07,0a1.74,1.74,0,0,1-.27-.06c.1-.19.17-.36.26-.51,1.83-3,3.65-6,5.5-9a.65.65,0,0,0,0-.78q-2.68-4.52-5.35-9c-.09-.16-.16-.33-.28-.56.2,0,.31,0,.43,0H9.84a.65.65,0,0,1,.65.35c1.1,2.07,2.22,4.14,3.33,6.21l.51,1,.22-.36q1.79-3.42,3.6-6.83a.58.58,0,0,1,.42-.3c1.3,0,2.6,0,3.9,0Z"/><rect class="cls-4" x="55.51" y="11.67" width="139.35" height="16" rx="8"/><line class="cls-5" x1="61.81" y1="19.67" x2="111.12" y2="19.67"/><path class="cls-2" d="M59.12,43.8V35.53H60v3.61h2.42V35.53h.87V43.8h-.87v-4H60v4Z"/><path class="cls-2" d="M66.17,43.9a2.48,2.48,0,0,1-.65-.09,1,1,0,0,1-.56-.42,1.85,1.85,0,0,1-.23-1v-.67a1.51,1.51,0,0,1,.43-1.13,3.82,3.82,0,0,1,1.17-.76c.31-.16.57-.3.77-.42a1.55,1.55,0,0,0,.46-.41,1.07,1.07,0,0,0,.15-.6v-.29a.85.85,0,0,0-.14-.52.68.68,0,0,0-.37-.25,1.51,1.51,0,0,0-.48-.07.87.87,0,0,0-.83.34,2.11,2.11,0,0,0-.19,1v.59h-.8v-.67a2.65,2.65,0,0,1,.14-.92,1.2,1.2,0,0,1,.53-.63,2.33,2.33,0,0,1,1.15-.23,3,3,0,0,1,1.19.18,1,1,0,0,1,.54.52,2.17,2.17,0,0,1,.13.8V43.8h-.85l0-.87a1.31,1.31,0,0,1-.6.73A1.91,1.91,0,0,1,66.17,43.9Zm.32-.59a1,1,0,0,0,.92-.45,2.16,2.16,0,0,0,.29-1.19V39.46a1.33,1.33,0,0,1-.46.41l-.66.36a3.12,3.12,0,0,0-.74.58,1.26,1.26,0,0,0-.26.84v.54a1.51,1.51,0,0,0,.14.74.64.64,0,0,0,.35.31A1.23,1.23,0,0,0,66.49,43.31Z"/><path class="cls-2" d="M72.47,43.8V41.14a1.12,1.12,0,0,1-.47.6,1.53,1.53,0,0,1-.87.24,1.74,1.74,0,0,1-1-.24,1.08,1.08,0,0,1-.44-.65,4.1,4.1,0,0,1-.1-1V36.87h.87v3.26a1.87,1.87,0,0,0,.18.92.85.85,0,0,0,.78.32.93.93,0,0,0,.69-.24,1.19,1.19,0,0,0,.31-.48V36.87h.88V43.8Z"/><path class="cls-2" d="M75.89,43.9a2.43,2.43,0,0,1-.65-.09,1,1,0,0,1-.56-.42,1.76,1.76,0,0,1-.23-1v-.67a1.55,1.55,0,0,1,.42-1.13A4.08,4.08,0,0,1,76,39.8q.48-.24.78-.42a1.39,1.39,0,0,0,.45-.41,1,1,0,0,0,.16-.6v-.29a.85.85,0,0,0-.14-.52.72.72,0,0,0-.37-.25,1.61,1.61,0,0,0-.49-.07c-.42,0-.69.11-.82.34a2.1,2.1,0,0,0-.2,1v.59h-.8v-.67a2.91,2.91,0,0,1,.14-.92,1.22,1.22,0,0,1,.54-.63,2.31,2.31,0,0,1,1.14-.23,3,3,0,0,1,1.2.18,1,1,0,0,1,.53.52,2.16,2.16,0,0,1,.14.8V43.8h-.86v-.87a1.36,1.36,0,0,1-.6.73A1.93,1.93,0,0,1,75.89,43.9Zm.32-.59a1,1,0,0,0,.92-.45,2.16,2.16,0,0,0,.28-1.19V39.46a1.17,1.17,0,0,1-.46.41l-.66.36a3,3,0,0,0-.73.58,1.26,1.26,0,0,0-.26.84v.54a1.51,1.51,0,0,0,.14.74.61.61,0,0,0,.35.31A1.23,1.23,0,0,0,76.21,43.31Z"/><path class="cls-2" d="M79.15,43.8v-.5a.57.57,0,0,0,.47-.26,1.6,1.6,0,0,0,.23-.78l.45-5.37h3.5V43.8h-.88V37.52H81.17l-.45,5a3.7,3.7,0,0,1-.06.41,1.5,1.5,0,0,1-.15.42.84.84,0,0,1-.31.34,1,1,0,0,1-.56.13Z"/><path class="cls-2" d="M85,43.8V36.9h.87v2.16h1.38a2.16,2.16,0,0,1,1,.19,1.12,1.12,0,0,1,.52.59,2.71,2.71,0,0,1,.15,1v.7a6,6,0,0,1-.08,1,1.85,1.85,0,0,1-.28.71,1.16,1.16,0,0,1-.53.42,2.2,2.2,0,0,1-.87.14Zm.87-.5H87a1.09,1.09,0,0,0,.69-.18.8.8,0,0,0,.3-.48A2.87,2.87,0,0,0,88,42V41A3.55,3.55,0,0,0,88,40.3a.82.82,0,0,0-.29-.49,1,1,0,0,0-.71-.19H85.83Z"/><path class="cls-2" d="M90.07,43.8V36.87h.87v3h2.19v-3H94V43.8h-.87V40.5H90.94v3.3Z"/><path class="cls-2" d="M95.17,43.8V36.9H96v2.16h1.39a2.19,2.19,0,0,1,1,.19,1.1,1.1,0,0,1,.51.59,2.49,2.49,0,0,1,.16,1v.7a5.09,5.09,0,0,1-.09,1,1.58,1.58,0,0,1-.28.71,1.11,1.11,0,0,1-.53.42,2.14,2.14,0,0,1-.87.14Zm.86-.5h1.14a1.08,1.08,0,0,0,.68-.18.8.8,0,0,0,.3-.48,2.42,2.42,0,0,0,.08-.69V41a3.55,3.55,0,0,0-.06-.67.82.82,0,0,0-.29-.49,1.08,1.08,0,0,0-.71-.19H96Zm4.4.5V36.87h.85V43.8Z"/><path class="cls-2" d="M102.61,43.8V36.89h.79v5.32l2.32-5.32h.78V43.8h-.77V38.29l-1.17,2.76c-.39.91-.79,1.83-1.21,2.75Zm1.93-7.63a1.38,1.38,0,0,1-.82-.21,1.08,1.08,0,0,1-.41-.5,1.74,1.74,0,0,1-.14-.53h.52a.92.92,0,0,0,.29.58.84.84,0,0,0,.58.2.91.91,0,0,0,.59-.19.81.81,0,0,0,.28-.59h.51a1.34,1.34,0,0,1-.15.56,1.15,1.15,0,0,1-.44.49A1.47,1.47,0,0,1,104.54,36.17Z"/><path class="cls-2" d="M110.65,45.44a2.86,2.86,0,0,1-.53,0l-.35-.07v-.52a.51.51,0,0,0,.19.06,2,2,0,0,0,.81,0,.66.66,0,0,0,.42-.39c.06-.09.12-.2.19-.32a.54.54,0,0,0,.05-.42l-1.59-6.82h.89L112,42.92h0l1.23-6.05h.83l-1.51,6.67a2.93,2.93,0,0,1-.66,1.43A1.63,1.63,0,0,1,110.65,45.44Z"/><path class="cls-2" d="M114.88,45.43V36.87h.81l0,.62a1.23,1.23,0,0,1,.4-.51,1.6,1.6,0,0,1,.93-.2,1.85,1.85,0,0,1,1,.22,1.13,1.13,0,0,1,.49.61,2.62,2.62,0,0,1,.14.92v3.41a4,4,0,0,1-.12,1,1.25,1.25,0,0,1-.48.7,2.27,2.27,0,0,1-1.88.07,1.14,1.14,0,0,1-.47-.42v2.12Zm1.9-2.06a1.37,1.37,0,0,0,.6-.11.81.81,0,0,0,.31-.3,1,1,0,0,0,.11-.42c0-.16,0-.32,0-.5V38.66c0-.17,0-.34,0-.49a1,1,0,0,0-.11-.43.77.77,0,0,0-.31-.31,1.37,1.37,0,0,0-.6-.11,1.11,1.11,0,0,0-.6.14.86.86,0,0,0-.31.37,1.4,1.4,0,0,0-.11.5c0,.18,0,.34,0,.5v3.31a3,3,0,0,0,.07.62.72.72,0,0,0,.28.45A1.13,1.13,0,0,0,116.78,43.37Z"/><path class="cls-2" d="M121.72,43.9a2.45,2.45,0,0,1-1.2-.24A1.18,1.18,0,0,1,120,43a3.52,3.52,0,0,1-.15-1.1V38.64a2.87,2.87,0,0,1,.14-1,1.16,1.16,0,0,1,.56-.66,3,3,0,0,1,2.41,0,1.22,1.22,0,0,1,.55.66,2.86,2.86,0,0,1,.15,1v3.23a3.5,3.5,0,0,1-.16,1.1,1.24,1.24,0,0,1-.56.69A2.41,2.41,0,0,1,121.72,43.9Zm0-.53a1,1,0,0,0,.7-.2,1,1,0,0,0,.28-.49,3.21,3.21,0,0,0,.06-.63V38.59a3,3,0,0,0-.06-.61.89.89,0,0,0-.28-.48,1,1,0,0,0-.7-.19,1,1,0,0,0-.7.19.79.79,0,0,0-.28.48,3,3,0,0,0,0,.61v3.46a3.22,3.22,0,0,0,0,.63.84.84,0,0,0,.28.49A1,1,0,0,0,121.72,43.37Z"/><path class="cls-2" d="M124.77,43.8V36.87h2.48a1.85,1.85,0,0,1,1.15.33,1.26,1.26,0,0,1,.43,1.07v.52a1.35,1.35,0,0,1-.37,1,1.42,1.42,0,0,1-1,.37v0a1.56,1.56,0,0,1,1,.36,1.42,1.42,0,0,1,.42,1.15v.43a2.12,2.12,0,0,1-.23,1.08,1.16,1.16,0,0,1-.63.5,3.14,3.14,0,0,1-1,.13Zm.93-3.89h1.12a1.26,1.26,0,0,0,.86-.25,1,1,0,0,0,.29-.8v-.59a.76.76,0,0,0-.28-.64,1,1,0,0,0-.68-.23H125.7Zm0,3.4h1.22a1.72,1.72,0,0,0,.58-.09.72.72,0,0,0,.38-.35,1.86,1.86,0,0,0,.13-.76v-.55a1.14,1.14,0,0,0-.16-.64.88.88,0,0,0-.42-.32,1.85,1.85,0,0,0-.6-.09H125.7Z"/><path class="cls-2" d="M132.08,43.93a3.26,3.26,0,0,1-1.13-.16,1.09,1.09,0,0,1-.63-.6,3.18,3.18,0,0,1-.2-1.26V38.45a1.69,1.69,0,0,1,.44-1.33,2.35,2.35,0,0,1,1.47-.36,2.25,2.25,0,0,1,1.43.36,1.65,1.65,0,0,1,.44,1.33v1.8H131v2a1.53,1.53,0,0,0,.21.93,1.08,1.08,0,0,0,.85.26,1,1,0,0,0,.79-.26,1.59,1.59,0,0,0,.19-.93v-.9h.87v.59a3.18,3.18,0,0,1-.19,1.25,1.09,1.09,0,0,1-.6.61A2.7,2.7,0,0,1,132.08,43.93ZM131,39.8h2V38.38a1.46,1.46,0,0,0-.19-.85,1,1,0,0,0-.81-.27,1,1,0,0,0-.83.27,1.38,1.38,0,0,0-.21.85Z"/><path class="cls-2" d="M135,43.8V36.87h.87v3h2.2v-3h.87V43.8h-.87V40.5h-2.2v3.3Z"/><path class="cls-2" d="M140.09,43.8V36.9H141v2.16h1.38a2.16,2.16,0,0,1,1,.19,1.12,1.12,0,0,1,.52.59,2.71,2.71,0,0,1,.15,1v.7a5.15,5.15,0,0,1-.08,1,1.85,1.85,0,0,1-.28.71,1.16,1.16,0,0,1-.53.42,2.2,2.2,0,0,1-.87.14Zm.87-.5h1.13a1.09,1.09,0,0,0,.69-.18.8.8,0,0,0,.3-.48,2.84,2.84,0,0,0,.08-.69V41a2.87,2.87,0,0,0-.07-.67.81.81,0,0,0-.28-.49,1.09,1.09,0,0,0-.72-.19H141Z"/></g></g></svg>